<svg width="37" height="36" viewBox="0 0 37 36" fill="none" xmlns="http://www.w3.org/2000/svg">
<path opacity="0.12" d="M18.3333 25.5C20.5833 21 27.3333 18.0956 27.3333 12C27.3333 7.02944 23.3039 3 18.3333 3C13.3628 3 9.33331 7.02944 9.33331 12C9.33331 18.0956 16.0833 21 18.3333 25.5Z" fill="#858899"/>
<path d="M7.83331 21.4295C5.05627 22.6546 3.33331 24.3618 3.33331 26.25C3.33331 29.9779 10.049 33 18.3333 33C26.6176 33 33.3333 29.9779 33.3333 26.25C33.3333 24.3618 31.6104 22.6546 28.8333 21.4295M27.3333 12C27.3333 18.0956 20.5833 21 18.3333 25.5C16.0833 21 9.33331 18.0956 9.33331 12C9.33331 7.02944 13.3628 3 18.3333 3C23.3039 3 27.3333 7.02944 27.3333 12ZM19.8333 12C19.8333 12.8284 19.1617 13.5 18.3333 13.5C17.5049 13.5 16.8333 12.8284 16.8333 12C16.8333 11.1716 17.5049 10.5 18.3333 10.5C19.1617 10.5 19.8333 11.1716 19.8333 12Z" stroke="#858899" stroke-linecap="round" stroke-linejoin="round"/>
</svg>
