<svg width="18" height="18" viewBox="0 0 18 18" fill="none" xmlns="http://www.w3.org/2000/svg">
<path d="M8.84375 9.46875C8.67687 9.46875 8.51374 9.41927 8.37499 9.32655C8.23623 9.23384 8.12809 9.10206 8.06423 8.94789C8.00037 8.79371 7.98366 8.62406 8.01621 8.46039C8.04877 8.29672 8.12913 8.14638 8.24713 8.02838C8.36513 7.91038 8.51547 7.83002 8.67914 7.79746C8.84281 7.76491 9.01246 7.78162 9.16664 7.84548C9.32081 7.90934 9.45259 8.01748 9.5453 8.15624C9.63802 8.29499 9.6875 8.45812 9.6875 8.625C9.6875 8.84878 9.59861 9.06339 9.44037 9.22162C9.28214 9.37986 9.06753 9.46875 8.84375 9.46875ZM9.6875 13.4062C9.6875 13.2394 9.63802 13.0762 9.5453 12.9375C9.45259 12.7987 9.32081 12.6906 9.16664 12.6267C9.01246 12.5629 8.84281 12.5462 8.67914 12.5787C8.51547 12.6113 8.36513 12.6916 8.24713 12.8096C8.12913 12.9276 8.04877 13.078 8.01621 13.2416C7.98366 13.4053 8.00037 13.575 8.06423 13.7291C8.12809 13.8833 8.23623 14.0151 8.37499 14.1078C8.51374 14.2005 8.67687 14.25 8.84375 14.25C9.06753 14.25 9.28214 14.1611 9.44037 14.0029C9.59861 13.8446 9.6875 13.63 9.6875 13.4062ZM9.6875 3.84375C9.6875 3.67687 9.63802 3.51374 9.5453 3.37499C9.45259 3.23623 9.32081 3.12809 9.16664 3.06423C9.01246 3.00037 8.84281 2.98366 8.67914 3.01621C8.51547 3.04877 8.36513 3.12913 8.24713 3.24713C8.12913 3.36513 8.04877 3.51547 8.01621 3.67914C7.98366 3.84281 8.00037 4.01246 8.06423 4.16664C8.12809 4.32081 8.23623 4.45259 8.37499 4.5453C8.51374 4.63802 8.67687 4.6875 8.84375 4.6875C9.06753 4.6875 9.28214 4.59861 9.44037 4.44037C9.59861 4.28214 9.6875 4.06753 9.6875 3.84375Z" fill="currentColor"/>
</svg>
