<svg width="24" height="24" viewBox="0 0 24 24" fill="none" xmlns="http://www.w3.org/2000/svg">
<path d="M16 6.00024V5.20024C16 4.08014 16 3.52009 15.782 3.09226C15.5903 2.71594 15.2843 2.40998 14.908 2.21823C14.4802 2.00024 13.9201 2.00024 12.8 2.00024H11.2C10.0799 2.00024 9.51984 2.00024 9.09202 2.21823C8.7157 2.40998 8.40973 2.71594 8.21799 3.09226C8 3.52009 8 4.08014 8 5.20024V6.00024M10 11.5002V16.5002M14 11.5002V16.5002M3 6.00024H21M19 6.00024V17.2002C19 18.8804 19 19.7205 18.673 20.3622C18.3854 20.9267 17.9265 21.3856 17.362 21.6733C16.7202 22.0002 15.8802 22.0002 14.2 22.0002H9.8C8.11984 22.0002 7.27976 22.0002 6.63803 21.6733C6.07354 21.3856 5.6146 20.9267 5.32698 20.3622C5 19.7205 5 18.8804 5 17.2002V6.00024" stroke="currentColor" stroke-width="1.5" stroke-linecap="round" stroke-linejoin="round"/>
</svg>
