<svg width="36" height="36" viewBox="0 0 36 36" fill="none" xmlns="http://www.w3.org/2000/svg">
<mask id="mask0_18488_3630" style="mask-type:alpha" maskUnits="userSpaceOnUse" x="0" y="0" width="36" height="36">
<rect width="36" height="36" fill="currentColor"/>
</mask>
<g mask="url(#mask0_18488_3630)">
<path fill-rule="evenodd" clip-rule="evenodd" d="M13.2671 11.6855C13.7561 10.4553 14.5293 9.42342 15.5868 8.58996C16.9317 7.52999 18.4683 7 20.1966 7C22.2268 7 23.9559 7.71811 25.3841 9.15434C26.8123 10.5904 27.5708 12.3312 27.6597 14.3768V14.7968C28.932 14.9158 29.9884 15.437 30.8289 16.3605C31.6694 17.2841 32.0897 18.4006 32.0897 19.71C32.0897 21.0671 31.61 22.2253 30.6507 23.1844C29.8467 23.9885 28.903 24.4556 27.8195 24.5858C27.6832 25.6537 27.2176 26.585 26.4228 27.3797C25.4636 28.3391 24.3054 28.8188 22.9483 28.8188H10.033C8.36931 28.8188 6.94788 28.2393 5.76873 27.0805C4.58958 25.9218 4 24.5105 4 22.8466C4 21.409 4.43453 20.1278 5.30358 19.0028C6.17263 17.8779 7.30601 17.186 8.70374 16.927C9.12916 15.2256 10.0142 13.8451 11.3589 12.7853C11.9571 12.3138 12.5931 11.9472 13.2671 11.6855ZM16.1642 11.1976C18.1101 11.2424 19.7741 11.9597 21.1562 13.3497C22.5844 14.7857 23.3429 16.5265 23.4318 18.5721V18.9921C24.7041 19.1111 25.7605 19.6323 26.601 20.5558C27.0671 21.068 27.404 21.6395 27.6116 22.2704C28.134 22.1804 28.5961 21.9354 28.998 21.5354C29.5165 21.0193 29.7757 20.3993 29.7757 19.6753C29.7757 18.9515 29.5165 18.3316 28.998 17.8155C28.4794 17.2994 27.8606 17.0414 27.1416 17.0414H25.3657V14.6884C25.3657 13.1932 24.8576 11.9253 23.8414 10.8847C22.825 9.84419 21.5873 9.32391 20.1283 9.32391C18.6475 9.32391 17.3999 9.86527 16.3856 10.948C16.3089 11.0299 16.2351 11.1131 16.1642 11.1976ZM22.9137 26.5048H10.033C9.00071 26.5048 8.12274 26.1426 7.39911 25.4181C6.67566 24.6936 6.31394 23.8154 6.31394 22.7836C6.31394 21.7403 6.66989 20.86 7.38179 20.1426C8.09351 19.4253 8.95976 19.0666 9.98054 19.0666H10.6363C10.6363 17.534 11.1434 16.2262 12.1577 15.1433C13.172 14.0606 14.4196 13.5192 15.9004 13.5192C17.3594 13.5192 18.5971 14.0395 19.6135 15.08C20.6297 16.1206 21.1378 17.3885 21.1378 18.8837V21.2367H22.9137C23.6327 21.2367 24.2515 21.4948 24.7701 22.0108C25.2886 22.5269 25.5478 23.1468 25.5478 23.8706C25.5478 24.5946 25.2886 25.2146 24.7701 25.7307C24.2515 26.2468 23.6327 26.5048 22.9137 26.5048Z" fill="currentColor"/>
</g>
</svg>
