<svg width="36" height="36" viewBox="0 0 36 36" fill="none" xmlns="http://www.w3.org/2000/svg">
<mask id="mask0_18488_3313" style="mask-type:alpha" maskUnits="userSpaceOnUse" x="0" y="0" width="36" height="36">
<rect width="36" height="36" fill="currentColor"/>
</mask>
<g mask="url(#mask0_18488_3313)">
<path d="M17.9933 7.125C17.6728 7.125 17.4063 7.01713 17.1938 6.80137C16.9813 6.58588 16.875 6.31875 16.875 6V2.625C16.875 2.30625 16.9835 2.039 17.2005 1.82325C17.4172 1.60775 17.686 1.5 18.0068 1.5C18.3273 1.5 18.5938 1.60775 18.8063 1.82325C19.0188 2.039 19.125 2.30625 19.125 2.625V6C19.125 6.31875 19.0165 6.58588 18.7995 6.80137C18.5828 7.01713 18.314 7.125 17.9933 7.125ZM25.6875 10.3125C25.4625 10.0875 25.35 9.82375 25.35 9.52125C25.35 9.21875 25.4625 8.9575 25.6875 8.7375L28.05 6.3375C28.2768 6.1125 28.5459 6 28.8574 6C29.1691 6 29.4375 6.1125 29.6625 6.3375C29.8875 6.5625 30 6.825 30 7.125C30 7.425 29.8875 7.6875 29.6625 7.9125L27.2625 10.3125C27.0375 10.5375 26.775 10.65 26.475 10.65C26.175 10.65 25.9125 10.5375 25.6875 10.3125ZM30 19.125C29.6812 19.125 29.4141 19.0165 29.1986 18.7995C28.9829 18.5828 28.875 18.314 28.875 17.9933C28.875 17.6728 28.9829 17.4063 29.1986 17.1938C29.4141 16.9813 29.6812 16.875 30 16.875H33.375C33.6937 16.875 33.961 16.9835 34.1768 17.2005C34.3923 17.4172 34.5 17.686 34.5 18.0068C34.5 18.3273 34.3923 18.5938 34.1768 18.8063C33.961 19.0188 33.6937 19.125 33.375 19.125H30ZM17.9933 34.5C17.6728 34.5 17.4063 34.3921 17.1938 34.1764C16.9813 33.9609 16.875 33.6937 16.875 33.375V30C16.875 29.6812 16.9835 29.414 17.2005 29.1982C17.4172 28.9827 17.686 28.875 18.0068 28.875C18.3273 28.875 18.5938 28.9827 18.8063 29.1982C19.0188 29.414 19.125 29.6812 19.125 30V33.375C19.125 33.6937 19.0165 33.9609 18.7995 34.1764C18.5828 34.3921 18.314 34.5 17.9933 34.5ZM8.7375 10.3125L6.3375 7.95C6.1125 7.72825 6 7.46038 6 7.14638C6 6.83213 6.11737 6.5625 6.35213 6.3375C6.56738 6.1125 6.825 6 7.125 6C7.425 6 7.6875 6.1125 7.9125 6.3375L10.3125 8.7375C10.5375 8.9625 10.65 9.225 10.65 9.525C10.65 9.825 10.5375 10.0875 10.3125 10.3125C10.0808 10.5125 9.81025 10.6125 9.501 10.6125C9.192 10.6125 8.9375 10.5125 8.7375 10.3125ZM28.0875 29.6625L25.6875 27.2625C25.4625 27.0425 25.35 26.7812 25.35 26.4788C25.35 26.1763 25.4625 25.9125 25.6875 25.6875C25.8937 25.4875 26.1516 25.3875 26.4611 25.3875C26.7704 25.3875 27.0375 25.4875 27.2625 25.6875L29.7 28.05C29.925 28.275 30.0329 28.545 30.0236 28.86C30.0144 29.1752 29.9077 29.444 29.7038 29.6663C29.4815 29.8888 29.2127 30 28.8975 30C28.5825 30 28.3125 29.8875 28.0875 29.6625ZM2.625 19.125C2.30625 19.125 2.03913 19.0165 1.82363 18.7995C1.60788 18.5828 1.5 18.314 1.5 17.9933C1.5 17.6728 1.60788 17.4063 1.82363 17.1938C2.03913 16.9813 2.30625 16.875 2.625 16.875H6C6.31875 16.875 6.586 16.9835 6.80175 17.2005C7.01725 17.4172 7.125 17.686 7.125 18.0068C7.125 18.3273 7.01725 18.5938 6.80175 18.8063C6.586 19.0188 6.31875 19.125 6 19.125H2.625ZM6.3375 29.6479C6.1125 29.4326 6 29.175 6 28.875C6 28.575 6.1125 28.3125 6.3375 28.0875L8.7375 25.6875C8.94375 25.4875 9.20163 25.3875 9.51113 25.3875C9.82038 25.3875 10.0875 25.4906 10.3125 25.6969C10.5375 25.9219 10.65 26.189 10.65 26.4983C10.65 26.8078 10.5375 27.075 10.3125 27.3L7.95 29.6625C7.72825 29.8875 7.46038 30 7.14638 30C6.83213 30 6.5625 29.8826 6.3375 29.6479ZM18 27C15.5 27 13.375 26.125 11.625 24.375C9.875 22.625 9 20.5 9 18C9 15.5 9.875 13.375 11.625 11.625C13.375 9.875 15.5 9 18 9C20.5 9 22.625 9.875 24.375 11.625C26.125 13.375 27 15.5 27 18C27 20.5 26.125 22.625 24.375 24.375C22.625 26.125 20.5 27 18 27ZM18 24.75C19.875 24.75 21.4688 24.0938 22.7812 22.7812C24.0938 21.4688 24.75 19.875 24.75 18C24.75 16.125 24.0938 14.5312 22.7812 13.2188C21.4688 11.9062 19.875 11.25 18 11.25C16.125 11.25 14.5312 11.9062 13.2188 13.2188C11.9062 14.5312 11.25 16.125 11.25 18C11.25 19.875 11.9062 21.4688 13.2188 22.7812C14.5312 24.0938 16.125 24.75 18 24.75Z" fill="currentColor"/>
</g>
</svg>
