<svg width="36" height="36" viewBox="0 0 36 36" fill="none" xmlns="http://www.w3.org/2000/svg">
<mask id="mask0_18488_3485" style="mask-type:alpha" maskUnits="userSpaceOnUse" x="0" y="0" width="36" height="36">
<rect width="36" height="36" fill="currentColor"/>
</mask>
<g mask="url(#mask0_18488_3485)">
<path d="M17.9933 7.125C17.6728 7.125 17.4063 7.01713 17.1938 6.80137C16.9813 6.58588 16.875 6.31875 16.875 6V2.625C16.875 2.30625 16.9835 2.039 17.2005 1.82325C17.4172 1.60775 17.686 1.5 18.0068 1.5C18.3273 1.5 18.5938 1.60775 18.8063 1.82325C19.0188 2.039 19.125 2.30625 19.125 2.625V6C19.125 6.31875 19.0165 6.58588 18.7995 6.80137C18.5828 7.01713 18.314 7.125 17.9933 7.125ZM25.6875 10.3125C25.4625 10.0875 25.35 9.81875 25.35 9.50625C25.35 9.19375 25.4625 8.925 25.6875 8.7L28.05 6.3375C28.2768 6.1125 28.5459 6 28.8574 6C29.1691 6 29.4375 6.1125 29.6625 6.3375C29.8875 6.5625 30 6.825 30 7.125C30 7.425 29.8875 7.6875 29.6625 7.9125L27.2625 10.3125C27.0375 10.5375 26.775 10.65 26.475 10.65C26.175 10.65 25.9125 10.5375 25.6875 10.3125ZM30 19.125C29.6812 19.125 29.4141 19.0165 29.1986 18.7995C28.9829 18.5828 28.875 18.314 28.875 17.9933C28.875 17.6728 28.9829 17.4063 29.1986 17.1938C29.4141 16.9813 29.6812 16.875 30 16.875H33.375C33.6937 16.875 33.961 16.9835 34.1768 17.2005C34.3923 17.4172 34.5 17.686 34.5 18.0068C34.5 18.3273 34.3923 18.5938 34.1768 18.8063C33.961 19.0188 33.6937 19.125 33.375 19.125H30ZM28.0875 29.6625L25.725 27.3C25.5 27.075 25.3875 26.8062 25.3875 26.4938C25.3875 26.1813 25.5 25.9125 25.725 25.6875C25.95 25.4625 26.2188 25.35 26.5312 25.35C26.8438 25.35 27.1125 25.4625 27.3375 25.6875L29.7 28.05C29.925 28.2768 30.0375 28.5459 30.0375 28.8574C30.0375 29.1691 29.9244 29.4375 29.6981 29.6625C29.4716 29.8875 29.2029 30 28.8919 30C28.5806 30 28.3125 29.8875 28.0875 29.6625ZM8.7375 10.3125L6.3375 7.9125C6.1125 7.6875 6 7.425 6 7.125C6 6.825 6.1125 6.5625 6.3375 6.3375C6.5575 6.1125 6.81875 6 7.12125 6C7.42375 6 7.6875 6.1125 7.9125 6.3375L10.3125 8.7375C10.5375 8.9625 10.65 9.225 10.65 9.525C10.65 9.825 10.5375 10.0875 10.3125 10.3125C10.0875 10.5375 9.825 10.65 9.525 10.65C9.225 10.65 8.9625 10.5375 8.7375 10.3125ZM9 29.25H15.75C16.5833 29.25 17.2916 28.9593 17.8751 28.3778C18.4584 27.796 18.75 27.0898 18.75 26.259C18.75 25.428 18.4655 24.7125 17.8965 24.1125C17.3272 23.5125 16.6243 23.2125 15.7875 23.2125H14.1375L13.4625 21.675C13.0837 20.7812 12.4887 20.0702 11.6775 19.542C10.8663 19.014 9.97375 18.75 9 18.75C7.54175 18.75 6.30212 19.2595 5.28113 20.2785C4.26038 21.2978 3.75 22.5353 3.75 23.991C3.75 25.447 4.26038 26.6875 5.28113 27.7125C6.30212 28.7375 7.54175 29.25 9 29.25ZM9 31.5C6.925 31.5 5.15625 30.7688 3.69375 29.3063C2.23125 27.8438 1.5 26.075 1.5 24C1.5 21.925 2.23125 20.1562 3.69375 18.6938C5.15625 17.2313 6.925 16.5 9 16.5C10.4435 16.5 11.7606 16.9062 12.9514 17.7188C14.1421 18.5312 15.025 19.6125 15.6 20.9625C17.103 20.9625 18.3663 21.5074 19.3898 22.5971C20.4132 23.6869 20.925 24.992 20.925 26.5125C20.8 27.9125 20.2496 29.0938 19.2739 30.0563C18.2979 31.0188 17.1233 31.5 15.75 31.5H9ZM20.925 26.5125C20.85 26.128 20.775 25.753 20.7 25.3875C20.625 25.022 20.55 24.647 20.475 24.2625C21.775 23.7625 22.8125 22.9432 23.5875 21.8047C24.3625 20.6662 24.75 19.3998 24.75 18.0053C24.75 16.1268 24.0938 14.5312 22.7812 13.2188C21.4688 11.9062 19.875 11.25 18 11.25C16.3195 11.25 14.8491 11.7834 13.5889 12.8501C12.3286 13.9171 11.5865 15.2713 11.3625 16.9125C10.9625 16.8375 10.5687 16.7688 10.1812 16.7062C9.79375 16.6437 9.4 16.575 9 16.5C9.35 14.3 10.3812 12.5 12.0938 11.1C13.8063 9.7 15.775 9 18 9C20.5 9 22.625 9.875 24.375 11.625C26.125 13.375 27 15.5043 27 18.0128C27 19.9543 26.4438 21.7 25.3312 23.25C24.2188 24.8 22.75 25.8875 20.925 26.5125Z" fill="currentColor"/>
</g>
</svg>
