<svg width="36" height="36" viewBox="0 0 36 36" fill="none" xmlns="http://www.w3.org/2000/svg">
<mask id="mask0_18488_3411" style="mask-type:alpha" maskUnits="userSpaceOnUse" x="0" y="0" width="36" height="36">
<rect width="36" height="36" fill="currentColor"/>
</mask>
<g mask="url(#mask0_18488_3411)">
<path d="M27 28.3125C26.65 28.3125 26.3438 28.1813 26.0812 27.9188C25.8188 27.6563 25.6875 27.35 25.6875 27C25.6875 26.65 25.8188 26.3438 26.0812 26.0812C26.3438 25.8188 26.65 25.6875 27 25.6875C27.35 25.6875 27.6563 25.8188 27.9188 26.0812C28.1813 26.3438 28.3125 26.65 28.3125 27C28.3125 27.35 28.1813 27.6563 27.9188 27.9188C27.6563 28.1813 27.35 28.3125 27 28.3125ZM10.5 33C10.15 33 9.84375 32.8688 9.58125 32.6063C9.31875 32.3438 9.1875 32.0375 9.1875 31.6875C9.1875 31.3375 9.31875 31.0313 9.58125 30.7688C9.84375 30.5063 10.15 30.375 10.5 30.375C10.85 30.375 11.1562 30.5063 11.4188 30.7688C11.6813 31.0313 11.8125 31.3375 11.8125 31.6875C11.8125 32.0375 11.6813 32.3438 11.4188 32.6063C11.1562 32.8688 10.85 33 10.5 33ZM9 28.3125C8.65 28.3125 8.34375 28.1813 8.08125 27.9188C7.81875 27.6563 7.6875 27.35 7.6875 27C7.6875 26.65 7.81875 26.3438 8.08125 26.0812C8.34375 25.8188 8.65 25.6875 9 25.6875H22.5C22.85 25.6875 23.1562 25.8188 23.4188 26.0812C23.6812 26.3438 23.8125 26.65 23.8125 27C23.8125 27.35 23.6812 27.6563 23.4188 27.9188C23.1562 28.1813 22.85 28.3125 22.5 28.3125H9ZM15 33C14.65 33 14.3438 32.8688 14.0813 32.6063C13.8188 32.3438 13.6875 32.0375 13.6875 31.6875C13.6875 31.3375 13.8188 31.0313 14.0813 30.7688C14.3438 30.5063 14.65 30.375 15 30.375H25.5C25.85 30.375 26.1562 30.5063 26.4188 30.7688C26.6812 31.0313 26.8125 31.3375 26.8125 31.6875C26.8125 32.0375 26.6812 32.3438 26.4188 32.6063C26.1562 32.8688 25.85 33 25.5 33H15ZM10.875 23.25C8.7035 23.25 6.84813 22.481 5.30888 20.943C3.76963 19.405 3 17.5511 3 15.3814C3 13.4021 3.70625 11.6375 5.11875 10.0875C6.53125 8.5375 8.2875 7.6875 10.3875 7.5375C11.1875 6.1375 12.2437 5.03125 13.5562 4.21875C14.8687 3.40625 16.3553 3 18.0158 3C20.2803 3 22.1812 3.71875 23.7188 5.15625C25.2563 6.59375 26.2 8.375 26.55 10.5C28.525 10.6 30.0938 11.2688 31.2562 12.5063C32.4187 13.7438 33 15.1953 33 16.8608C33 18.6203 32.3802 20.125 31.1408 21.375C29.901 22.625 28.3958 23.25 26.625 23.25H10.875ZM10.875 21H26.625C27.78 21 28.7562 20.5938 29.5537 19.7812C30.3512 18.9688 30.75 17.9938 30.75 16.8563C30.75 15.7188 30.3512 14.75 29.5537 13.95C28.7562 13.15 27.78 12.75 26.625 12.75H24.375V11.625C24.375 9.85 23.7563 8.34375 22.5187 7.10625C21.2812 5.86875 19.7776 5.25 18.0079 5.25C16.7209 5.25 15.5479 5.59375 14.4889 6.28125C13.4296 6.96875 12.65 7.9 12.15 9.075L11.85 9.75H10.8C9.25 9.8 7.9375 10.3674 6.8625 11.4521C5.7875 12.5371 5.25 13.843 5.25 15.3698C5.25 16.9233 5.79912 18.25 6.89737 19.35C7.99563 20.45 9.3215 21 10.875 21Z" fill="currentColor"/>
</g>
</svg>
