<svg width="36" height="36" viewBox="0 0 36 36" fill="none" xmlns="http://www.w3.org/2000/svg">
<mask id="mask0_18488_3369" style="mask-type:alpha" maskUnits="userSpaceOnUse" x="0" y="0" width="36" height="36">
<rect width="36" height="36" fill="currentColor"/>
</mask>
<g mask="url(#mask0_18488_3369)">
<path d="M20.925 32.8875C20.65 33.0125 20.3563 33.025 20.0438 32.925C19.7313 32.825 19.5125 32.6375 19.3875 32.3625L16.8 27.1875C16.675 26.9125 16.6563 26.6187 16.7438 26.3062C16.8313 25.9937 17.0125 25.775 17.2875 25.65C17.5625 25.525 17.8563 25.5125 18.1688 25.6125C18.4813 25.7125 18.7 25.9 18.825 26.175L21.4125 31.35C21.5375 31.625 21.5562 31.9187 21.4688 32.2312C21.3813 32.5437 21.2 32.7625 20.925 32.8875ZM29.925 32.85C29.65 32.975 29.3563 32.9875 29.0438 32.8875C28.7313 32.7875 28.5125 32.6 28.3875 32.325L25.8 27.15C25.675 26.875 25.6563 26.5812 25.7438 26.2687C25.8313 25.9562 26.0125 25.7375 26.2875 25.6125C26.5625 25.4875 26.8563 25.475 27.1688 25.575C27.4813 25.675 27.7 25.8625 27.825 26.1375L30.4125 31.3125C30.5375 31.5875 30.5562 31.8812 30.4688 32.1937C30.3813 32.5062 30.2 32.725 29.925 32.85ZM11.925 32.85C11.65 32.975 11.3563 32.9937 11.0438 32.9062C10.7313 32.8187 10.5125 32.6375 10.3875 32.3625L7.8 27.1875C7.675 26.9125 7.6625 26.6187 7.7625 26.3062C7.8625 25.9937 8.05 25.775 8.325 25.65C8.6 25.525 8.89375 25.5062 9.20625 25.5937C9.51875 25.6812 9.7375 25.8625 9.8625 26.1375L12.45 31.35C12.575 31.625 12.5875 31.9125 12.4875 32.2125C12.3875 32.5125 12.2 32.725 11.925 32.85ZM10.875 23.25C8.7 23.25 6.84375 22.4812 5.30625 20.9437C3.76875 19.4062 3 17.55 3 15.375C3 13.4 3.70625 11.6375 5.11875 10.0875C6.53125 8.5375 8.2875 7.6875 10.3875 7.5375C11.1875 6.1375 12.2437 5.03125 13.5562 4.21875C14.8687 3.40625 16.35 3 18 3C20.275 3 22.1812 3.71875 23.7188 5.15625C25.2563 6.59375 26.2 8.375 26.55 10.5C28.525 10.6 30.0937 11.2687 31.2562 12.5062C32.4187 13.7437 33 15.2 33 16.875C33 18.625 32.3813 20.125 31.1438 21.375C29.9063 22.625 28.4 23.25 26.625 23.25H10.875ZM10.875 21H26.625C27.775 21 28.75 20.5937 29.55 19.7812C30.35 18.9687 30.75 18 30.75 16.875C30.75 15.725 30.35 14.75 29.55 13.95C28.75 13.15 27.775 12.75 26.625 12.75H24.375V11.625C24.375 9.85 23.7562 8.34375 22.5187 7.10625C21.2812 5.86875 19.775 5.25 18 5.25C16.725 5.25 15.5562 5.59375 14.4937 6.28125C13.4312 6.96875 12.65 7.9 12.15 9.075L11.85 9.75H10.8C9.25 9.8 7.9375 10.3687 6.8625 11.4562C5.7875 12.5437 5.25 13.85 5.25 15.375C5.25 16.925 5.8 18.25 6.9 19.35C8 20.45 9.325 21 10.875 21Z" fill="currentColor"/>
</g>
</svg>
