<svg width="36" height="36" viewBox="0 0 36 36" fill="none" xmlns="http://www.w3.org/2000/svg">
<mask id="mask0_18488_3565" style="mask-type:alpha" maskUnits="userSpaceOnUse" x="0" y="0" width="36" height="36">
<rect width="36" height="36" fill="currentColor"/>
</mask>
<g mask="url(#mask0_18488_3565)">
<path d="M9.525 30.0003C7.3 30.0003 5.40625 29.2253 3.84375 27.6753C2.28125 26.1253 1.5 24.2378 1.5 22.0128C1.5 20.0628 2.1125 18.3419 3.3375 16.8501C4.5625 15.3586 6.13338 14.442 8.05013 14.1003C8.59163 11.717 9.79163 9.77539 11.6501 8.27539C13.5084 6.77539 15.6416 6.02539 18.0499 6.02539C20.8916 6.02539 23.2938 7.04414 25.2563 9.08164C27.2188 11.1191 28.2 13.5754 28.2 16.4504V17.0504C29.975 17.0836 31.4688 17.719 32.6813 18.9565C33.8938 20.194 34.5 21.7169 34.5 23.5251C34.5 25.3001 33.8646 26.8231 32.5939 28.0941C31.3229 29.3649 29.7999 30.0003 28.0249 30.0003H9.525ZM9.525 27.5001H28.0249C29.1249 27.5001 30.0624 27.1126 30.8374 26.3376C31.6124 25.5626 31.9999 24.6251 31.9999 23.5251C31.9999 22.4251 31.6124 21.4876 30.8374 20.7126C30.0624 19.9376 29.1249 19.5501 28.0249 19.5501H25.6999V16.4504C25.6999 14.2419 24.9479 12.3689 23.4439 10.8314C21.9396 9.29389 20.1084 8.52514 17.9501 8.52514C15.7916 8.52514 13.9561 9.29389 12.4436 10.8314C10.9311 12.3689 10.1749 14.2419 10.1749 16.4504H9.45C7.93325 16.4504 6.64575 16.9836 5.5875 18.0501C4.52925 19.1169 4.00012 20.4253 4.00012 21.9753C4.00012 23.5085 4.53763 24.8126 5.61263 25.8876C6.68762 26.9626 7.99175 27.5001 9.525 27.5001Z" fill="currentColor"/>
</g>
</svg>
