<svg width="36" height="36" viewBox="0 0 36 36" fill="none" xmlns="http://www.w3.org/2000/svg">
<mask id="mask0_18488_3634" style="mask-type:alpha" maskUnits="userSpaceOnUse" x="0" y="0" width="36" height="36">
<rect width="36" height="36" fill="currentColor"/>
</mask>
<g mask="url(#mask0_18488_3634)">
<path fill-rule="evenodd" clip-rule="evenodd" d="M5.30625 20.9437C6.84375 22.4812 8.7 23.25 10.875 23.25H26.625C28.4 23.25 29.9063 22.625 31.1438 21.375C32.3813 20.125 33 18.625 33 16.875C33 15.2 32.4187 13.7437 31.2562 12.5062C30.0937 11.2687 28.525 10.6 26.55 10.5C26.2 8.375 25.2563 6.59375 23.7188 5.15625C22.1812 3.71875 20.275 3 18 3C16.35 3 14.8687 3.40625 13.5562 4.21875C12.2437 5.03125 11.1875 6.1375 10.3875 7.5375C8.2875 7.6875 6.53125 8.5375 5.11875 10.0875C3.70625 11.6375 3 13.4 3 15.375C3 17.55 3.76875 19.4062 5.30625 20.9437ZM26.625 21H10.875C9.325 21 8 20.45 6.9 19.35C5.8 18.25 5.25 16.925 5.25 15.375C5.25 13.85 5.7875 12.5437 6.8625 11.4562C7.9375 10.3687 9.25 9.8 10.8 9.75H11.85L12.15 9.075C12.65 7.9 13.4312 6.96875 14.4937 6.28125C15.5562 5.59375 16.725 5.25 18 5.25C19.775 5.25 21.2812 5.86875 22.5187 7.10625C23.7562 8.34375 24.375 9.85 24.375 11.625V12.75H26.625C27.775 12.75 28.75 13.15 29.55 13.95C30.35 14.75 30.75 15.725 30.75 16.875C30.75 18 30.35 18.9687 29.55 19.7812C28.75 20.5937 27.775 21 26.625 21ZM8.55301 25.1058C9.04698 24.8588 9.64766 25.059 9.89465 25.553L10.8946 27.553C11.1416 28.047 10.9414 28.6477 10.4474 28.8946C9.95345 29.1416 9.35278 28.9414 9.10579 28.4474L8.10579 26.4474C7.8588 25.9535 8.05903 25.3528 8.55301 25.1058ZM26.553 25.1058C27.047 24.8588 27.6477 25.059 27.8946 25.553L28.8946 27.553C29.1416 28.047 28.9414 28.6477 28.4474 28.8946C27.9535 29.1416 27.3528 28.9414 27.1058 28.4474L26.1058 26.4474C25.8588 25.9535 26.059 25.3528 26.553 25.1058ZM20.8946 29.553C20.6477 29.059 20.047 28.8588 19.553 29.1058C19.059 29.3528 18.8588 29.9535 19.1058 30.4474L20.1058 32.4474C20.3528 32.9414 20.9535 33.1416 21.4474 32.8946C21.9414 32.6477 22.1416 32.047 21.8946 31.553L20.8946 29.553ZM11.553 31.1058C12.047 30.8588 12.6477 31.059 12.8946 31.553L13.3946 32.553C13.6416 33.047 13.4414 33.6477 12.9474 33.8946C12.4535 34.1416 11.8528 33.9414 11.6058 33.4474L11.1058 32.4474C10.8588 31.9535 11.059 31.3528 11.553 31.1058ZM18.8946 25.553C18.6477 25.059 18.047 24.8588 17.553 25.1058C17.059 25.3528 16.8588 25.9535 17.1058 26.4474L17.6058 27.4474C17.8528 27.9414 18.4535 28.1416 18.9474 27.8946C19.4414 27.6477 19.6416 27.047 19.3946 26.553L18.8946 25.553ZM29.553 31.1058C30.047 30.8588 30.6477 31.059 30.8946 31.553L31.3946 32.553C31.6416 33.047 31.4414 33.6477 30.9474 33.8946C30.4535 34.1416 29.8528 33.9414 29.6058 33.4474L29.1058 32.4474C28.8588 31.9535 29.059 31.3528 29.553 31.1058Z" fill="currentColor"/>
</g>
</svg>
