<svg width="36" height="36" viewBox="0 0 36 36" fill="none" xmlns="http://www.w3.org/2000/svg">
<mask id="mask0_18488_3357" style="mask-type:alpha" maskUnits="userSpaceOnUse" x="0" y="0" width="36" height="36">
<rect width="36" height="36" fill="currentColor"/>
</mask>
<g mask="url(#mask0_18488_3357)">
<path d="M9.74475 28.125C9.32325 28.125 8.96875 27.9795 8.68125 27.6885C8.39375 27.3975 8.25 27.0413 8.25 26.6198C8.25 26.1982 8.3955 25.8438 8.6865 25.5563C8.9775 25.2688 9.33375 25.125 9.75525 25.125C10.1768 25.125 10.5312 25.2705 10.8188 25.5615C11.1062 25.8525 11.25 26.2087 11.25 26.6302C11.25 27.0518 11.1045 27.4062 10.8135 27.6937C10.5225 27.9812 10.1662 28.125 9.74475 28.125ZM14.2447 33C13.8232 33 13.4688 32.8545 13.1812 32.5635C12.8938 32.2725 12.75 31.9163 12.75 31.4948C12.75 31.0732 12.8955 30.7188 13.1865 30.4313C13.4775 30.1438 13.8338 30 14.2553 30C14.6768 30 15.0313 30.1455 15.3188 30.4365C15.6063 30.7275 15.75 31.0837 15.75 31.5052C15.75 31.9268 15.6045 32.2812 15.3135 32.5687C15.0225 32.8562 14.6662 33 14.2447 33ZM18.7448 28.125C18.3232 28.125 17.9688 27.9795 17.6813 27.6885C17.3938 27.3975 17.25 27.0413 17.25 26.6198C17.25 26.1982 17.3955 25.8438 17.6865 25.5563C17.9775 25.2688 18.3338 25.125 18.7553 25.125C19.1768 25.125 19.5312 25.2705 19.8188 25.5615C20.1063 25.8525 20.25 26.2087 20.25 26.6302C20.25 27.0518 20.1045 27.4062 19.8135 27.6937C19.5225 27.9812 19.1663 28.125 18.7448 28.125ZM27.7448 28.125C27.3232 28.125 26.9688 27.9795 26.6813 27.6885C26.3938 27.3975 26.25 27.0413 26.25 26.6198C26.25 26.1982 26.3955 25.8438 26.6865 25.5563C26.9775 25.2688 27.3337 25.125 27.7552 25.125C28.1768 25.125 28.5312 25.2705 28.8187 25.5615C29.1062 25.8525 29.25 26.2087 29.25 26.6302C29.25 27.0518 29.1045 27.4062 28.8135 27.6937C28.5225 27.9812 28.1663 28.125 27.7448 28.125ZM23.2448 33C22.8232 33 22.4688 32.8545 22.1813 32.5635C21.8938 32.2725 21.75 31.9163 21.75 31.4948C21.75 31.0732 21.8955 30.7188 22.1865 30.4313C22.4775 30.1438 22.8338 30 23.2553 30C23.6768 30 24.0312 30.1455 24.3188 30.4365C24.6063 30.7275 24.75 31.0837 24.75 31.5052C24.75 31.9268 24.6045 32.2812 24.3135 32.5687C24.0225 32.8562 23.6663 33 23.2448 33ZM10.875 21.75C8.7035 21.75 6.84813 20.981 5.30888 19.443C3.76963 17.905 3 16.0511 3 13.8814C3 11.9021 3.70625 10.1375 5.11875 8.5875C6.53125 7.0375 8.2875 6.1875 10.3875 6.0375C11.1875 4.6375 12.2437 3.53125 13.5562 2.71875C14.8687 1.90625 16.3553 1.5 18.0158 1.5C20.2803 1.5 22.1812 2.21875 23.7188 3.65625C25.2563 5.09375 26.2 6.875 26.55 9C28.525 9.1 30.0938 9.76875 31.2562 11.0063C32.4187 12.2438 33 13.6953 33 15.3608C33 17.1203 32.3802 18.625 31.1408 19.875C29.901 21.125 28.3958 21.75 26.625 21.75H10.875ZM10.875 19.5H26.625C27.78 19.5 28.7562 19.0938 29.5537 18.2812C30.3512 17.4688 30.75 16.4938 30.75 15.3563C30.75 14.2188 30.3512 13.25 29.5537 12.45C28.7562 11.65 27.78 11.25 26.625 11.25H24.375V10.125C24.375 8.35 23.7563 6.84375 22.5187 5.60625C21.2812 4.36875 19.7776 3.75 18.0079 3.75C16.7209 3.75 15.5479 4.09375 14.4889 4.78125C13.4296 5.46875 12.65 6.4 12.15 7.575L11.85 8.25H10.8C9.25 8.3 7.9375 8.86738 6.8625 9.95213C5.7875 11.0371 5.25 12.343 5.25 13.8698C5.25 15.4233 5.79912 16.75 6.89737 17.85C7.99563 18.95 9.3215 19.5 10.875 19.5Z" fill="currentColor"/>
</g>
</svg>
