<svg width="36" height="36" viewBox="0 0 36 36" fill="none" xmlns="http://www.w3.org/2000/svg">
<mask id="mask0_18488_3363" style="mask-type:alpha" maskUnits="userSpaceOnUse" x="0" y="0" width="36" height="36">
<rect width="36" height="36" fill="currentColor"/>
</mask>
<g mask="url(#mask0_18488_3363)">
<path d="M12.2625 34.5C12.0125 34.5 11.8187 34.4 11.6812 34.2C11.5437 34 11.5125 33.7875 11.5875 33.5625L12.6 30.75H10.1625C10.0652 30.75 9.98475 30.7115 9.921 30.6345C9.857 30.5578 9.85 30.4713 9.9 30.375L11.4375 26.0625C11.4937 25.8937 11.5922 25.7577 11.733 25.6545C11.8735 25.5515 12.0375 25.5 12.225 25.5H14.5125C14.7158 25.5 14.8729 25.5813 14.9839 25.7438C15.0946 25.9062 15.1125 26.0875 15.0375 26.2875L13.7625 29.25H16.3125C16.4375 29.25 16.5188 29.3 16.5563 29.4C16.5938 29.5 16.575 29.6 16.5 29.7L12.987 34.2289C12.91 34.3321 12.82 34.4031 12.717 34.4419C12.614 34.4806 12.4625 34.5 12.2625 34.5ZM22.3875 33C22.1375 33 21.9438 32.9 21.8063 32.7C21.6688 32.5 21.6375 32.2875 21.7125 32.0625L22.425 30H19.9125C19.8153 30 19.7348 29.9615 19.671 29.8845C19.607 29.8078 19.6 29.7213 19.65 29.625L20.8875 26.0625C20.9465 25.8937 21.0496 25.7577 21.1969 25.6545C21.3441 25.5515 21.516 25.5 21.7125 25.5H24C24.1947 25.5 24.3498 25.5813 24.465 25.7438C24.58 25.9062 24.6 26.0875 24.525 26.2875L23.55 28.5H26.025C26.1478 28.5 26.2346 28.55 26.2856 28.65C26.3369 28.75 26.325 28.85 26.25 28.95L23.1019 32.736C23.0756 32.762 22.8375 32.85 22.3875 33ZM10.875 23.25C8.7035 23.25 6.84813 22.481 5.30888 20.943C3.76963 19.405 3 17.5511 3 15.3814C3 13.4021 3.70625 11.6375 5.11875 10.0875C6.53125 8.5375 8.2875 7.6875 10.3875 7.5375C11.1875 6.1375 12.2437 5.03125 13.5562 4.21875C14.8687 3.40625 16.3553 3 18.0158 3C20.2803 3 22.1812 3.71875 23.7188 5.15625C25.2563 6.59375 26.2 8.375 26.55 10.5C28.525 10.6 30.0938 11.2688 31.2562 12.5063C32.4187 13.7438 33 15.1953 33 16.8608C33 18.6203 32.3802 20.125 31.1408 21.375C29.901 22.625 28.3958 23.25 26.625 23.25H10.875ZM10.875 21H26.625C27.78 21 28.7562 20.5938 29.5537 19.7812C30.3512 18.9688 30.75 17.9938 30.75 16.8563C30.75 15.7188 30.3512 14.75 29.5537 13.95C28.7562 13.15 27.78 12.75 26.625 12.75H24.375V11.625C24.375 9.85 23.7563 8.34375 22.5187 7.10625C21.2812 5.86875 19.7776 5.25 18.0079 5.25C16.7209 5.25 15.5479 5.59375 14.4889 6.28125C13.4296 6.96875 12.65 7.9 12.15 9.075L11.85 9.75H10.8C9.25 9.8 7.9375 10.3674 6.8625 11.4521C5.7875 12.5371 5.25 13.843 5.25 15.3698C5.25 16.9233 5.79912 18.25 6.89737 19.35C7.99563 20.45 9.3215 21 10.875 21Z" fill="currentColor"/>
</g>
</svg>
