<svg width="36" height="36" viewBox="0 0 36 36" fill="none" xmlns="http://www.w3.org/2000/svg">
<g id="Icon/cloud">
<path id="Vector" d="M5.67744 25.8317L5.67663 25.8309C4.5534 24.7171 4 23.3852 4 21.7755C4 20.3089 4.49269 19.0165 5.51242 17.8605C6.51373 16.7254 7.72611 16.1345 9.20061 16.0509L10.0089 16.0051L10.1323 15.2049C10.433 13.2555 11.3183 11.6672 12.8074 10.3988C14.2974 9.12966 16.0139 8.5 18 8.5C20.2402 8.5 22.1103 9.27156 23.6694 10.8306C25.2284 12.3897 26 14.2598 26 16.5V18V19H27H27.9073C29.0832 19.041 30.0345 19.4638 30.8195 20.277C31.6088 21.0947 32 22.0662 32 23.25C32 24.4631 31.5932 25.4495 30.7722 26.2716C29.9488 27.0932 28.9621 27.5 27.75 27.5H9.75C8.14022 27.5 6.80201 26.9495 5.67744 25.8317Z" stroke="currentColor" stroke-width="2"/>
</g>
</svg>
