<svg width="36" height="36" viewBox="0 0 36 36" fill="none" xmlns="http://www.w3.org/2000/svg">
<path d="M13.5001 18C14.6935 18 15.8381 17.5259 16.682 16.682C17.526 15.8381 18.0001 14.6935 18.0001 13.5M18.0001 13.5C18.0001 14.6935 18.4742 15.8381 19.3181 16.682C20.162 17.5259 21.3066 18 22.5001 18M18.0001 13.5V6M9.12156 30C11.5396 30 13.5001 27.9975 13.5001 25.53V10.8855C13.5001 9.8445 12.6721 9 11.6521 9C11.3446 9 11.0446 9.078 10.7761 9.225L10.5811 9.3495C8.39106 10.938 6.93306 13.32 5.47506 18.0855C4.84506 20.1405 4.52106 22.528 4.50306 25.248C4.48506 27.7605 6.39456 29.829 8.81856 29.9895L9.12156 30ZM26.8801 30C24.4606 30 22.5001 27.9975 22.5001 25.53V10.8855C22.5001 9.8445 23.3281 9 24.3496 9C24.6556 9 24.9571 9.078 25.2256 9.225L25.4206 9.3495C27.6106 10.938 29.0686 13.32 30.5281 18.0855C31.1581 20.1405 31.4821 22.528 31.5001 25.248C31.5181 27.7605 29.6086 29.829 27.1831 29.9895L26.8801 30Z" stroke="#A9ABB8" stroke-width="2" stroke-linecap="round" stroke-linejoin="round"/>
</svg>
