<svg width="24" height="24" viewBox="0 0 24 24" fill="none" xmlns="http://www.w3.org/2000/svg">
<path d="M13 3.06V1H11V3.06C8.97212 3.28651 7.08154 4.19585 5.63869 5.63869C4.19585 7.08154 3.28651 8.97212 3.06 11H1V13H3.06C3.28651 15.0279 4.19585 16.9185 5.63869 18.3613C7.08154 19.8042 8.97212 20.7135 11 20.94V23H13V20.94C15.0279 20.7135 16.9185 19.8042 18.3613 18.3613C19.8042 16.9185 20.7135 15.0279 20.94 13H23V11H20.94C20.7135 8.97212 19.8042 7.08154 18.3613 5.63869C16.9185 4.19585 15.0279 3.28651 13 3.06ZM12 19C8.13 19 5 15.87 5 12C5 8.13 8.13 5 12 5C15.87 5 19 8.13 19 12C19 15.87 15.87 19 12 19Z" fill="#525463"/>
<path opacity="0.3" d="M12 14C13.1046 14 14 13.1046 14 12C14 10.8954 13.1046 10 12 10C10.8954 10 10 10.8954 10 12C10 13.1046 10.8954 14 12 14Z" fill="#525463"/>
<path d="M12 8C9.79 8 8 9.79 8 12C8 14.21 9.79 16 12 16C14.21 16 16 14.21 16 12C16 9.79 14.21 8 12 8ZM12 14C10.9 14 10 13.1 10 12C10 10.9 10.9 10 12 10C13.1 10 14 10.9 14 12C14 13.1 13.1 14 12 14Z" fill="#525463"/>
</svg>
