<svg width="24" height="24" viewBox="0 0 24 24" fill="none" xmlns="http://www.w3.org/2000/svg">
<g id="Icon">
<path id="Fill" opacity="0.12" d="M7.38028 9.85335C8.07627 11.303 9.02506 12.6616 10.2266 13.8632C11.4282 15.0648 12.7869 16.0136 14.2365 16.7096C14.3612 16.7694 14.4235 16.7994 14.5024 16.8224C14.7828 16.9041 15.127 16.8454 15.3644 16.6754C15.4313 16.6275 15.4884 16.5704 15.6027 16.4561C15.9523 16.1064 16.1271 15.9316 16.3029 15.8174C16.9658 15.3864 17.8204 15.3864 18.4833 15.8174C18.6591 15.9316 18.8339 16.1064 19.1835 16.4561L19.3783 16.6509C19.9098 17.1824 20.1755 17.4481 20.3198 17.7335C20.6069 18.301 20.6069 18.9713 20.3198 19.5389C20.1755 19.8242 19.9098 20.09 19.3783 20.6214L19.2207 20.779C18.6911 21.3087 18.4263 21.5735 18.0662 21.7757C17.6667 22.0001 17.0462 22.1615 16.588 22.1601C16.1751 22.1589 15.8928 22.0788 15.3284 21.9186C12.295 21.0576 9.43264 19.4332 7.04466 17.0452C4.65668 14.6572 3.03221 11.7948 2.17124 8.76144C2.01103 8.19699 1.93092 7.91477 1.9297 7.50182C1.92833 7.0436 2.08969 6.42311 2.31411 6.0236C2.51636 5.66357 2.78117 5.39876 3.3108 4.86913L3.46843 4.7115C3.99987 4.18006 4.2656 3.91433 4.55098 3.76999C5.11854 3.48292 5.7888 3.48292 6.35636 3.76999C6.64174 3.91433 6.90747 4.18006 7.43891 4.7115L7.63378 4.90637C7.98338 5.25597 8.15819 5.43078 8.27247 5.60655C8.70347 6.26944 8.70347 7.12403 8.27247 7.78692C8.15819 7.96269 7.98338 8.1375 7.63378 8.4871C7.51947 8.60142 7.46231 8.65857 7.41447 8.72538C7.24446 8.96281 7.18576 9.30707 7.26748 9.58743C7.29048 9.66632 7.32041 9.72866 7.38028 9.85335Z" fill="#525463"/>
<path id="Icon_2" d="M7.38028 9.85335C8.07627 11.303 9.02506 12.6616 10.2266 13.8632C11.4282 15.0648 12.7869 16.0136 14.2365 16.7096C14.3612 16.7694 14.4235 16.7994 14.5024 16.8224C14.7828 16.9041 15.127 16.8454 15.3644 16.6754C15.4313 16.6275 15.4884 16.5704 15.6027 16.4561C15.9523 16.1065 16.1271 15.9316 16.3029 15.8174C16.9658 15.3864 17.8204 15.3864 18.4833 15.8174C18.6591 15.9316 18.8339 16.1065 19.1835 16.4561L19.3783 16.6509C19.9098 17.1824 20.1755 17.4481 20.3198 17.7335C20.6069 18.301 20.6069 18.9713 20.3198 19.5389C20.1755 19.8242 19.9098 20.09 19.3783 20.6214L19.2207 20.779C18.6911 21.3087 18.4263 21.5735 18.0662 21.7757C17.6667 22.0001 17.0462 22.1615 16.588 22.1601C16.1751 22.1589 15.8928 22.0788 15.3284 21.9186C12.295 21.0576 9.43264 19.4332 7.04466 17.0452C4.65668 14.6572 3.03221 11.7948 2.17124 8.76144C2.01103 8.19699 1.93092 7.91477 1.9297 7.50182C1.92833 7.0436 2.08969 6.42311 2.31411 6.0236C2.51636 5.66357 2.78117 5.39876 3.3108 4.86913L3.46843 4.7115C3.99987 4.18006 4.2656 3.91433 4.55098 3.76999C5.11854 3.48292 5.7888 3.48292 6.35636 3.76999C6.64174 3.91433 6.90747 4.18006 7.43891 4.7115L7.63378 4.90637C7.98338 5.25597 8.15819 5.43078 8.27247 5.60655C8.70347 6.26945 8.70347 7.12403 8.27247 7.78692C8.15819 7.96269 7.98338 8.1375 7.63378 8.4871C7.51947 8.60142 7.46231 8.65857 7.41447 8.72538C7.24446 8.96281 7.18576 9.30707 7.26748 9.58743C7.29048 9.66632 7.32041 9.72866 7.38028 9.85335Z" stroke="#525463" stroke-width="1.5" stroke-linecap="round" stroke-linejoin="round"/>
</g>
</svg>
