<svg width="78" height="213" viewBox="0 0 78 213" fill="none" xmlns="http://www.w3.org/2000/svg">
<g clip-path="url(#clip0_15526_860)">
<path d="M68.955 212.71C73.6826 212.71 77.515 208.878 77.515 204.15C77.515 199.422 73.6826 195.59 68.955 195.59C64.2275 195.59 60.395 199.422 60.395 204.15C60.395 208.878 64.2275 212.71 68.955 212.71Z" fill="#1D6CE0"/>
<path d="M37.925 43.73C34.05 45.815 29.845 47.42 25.315 48.555C20.78 49.69 16.195 50.255 11.55 50.255C8.955 50.255 7.155 49.75 6.15 48.745C5.145 47.74 4.64 46.085 4.64 43.785V34.41C4.64 33.315 4.86 32.525 5.3 32.05C5.74 31.575 6.54 31.335 7.71 31.335H21.255V26.895H2.885C2.375 26.895 2.035 26.805 1.87 26.62C1.705 26.44 1.625 26.145 1.625 25.745V24.21C1.625 23.81 1.705 23.515 1.87 23.335C2.035 23.15 2.37 23.06 2.885 23.06H50.865C51.375 23.06 51.715 23.15 51.88 23.335C52.045 23.52 52.125 23.81 52.125 24.21V25.745C52.125 26.15 52.04 26.44 51.88 26.62C51.715 26.805 51.375 26.895 50.865 26.895H32.44V31.335H46.04C47.21 31.335 48.015 31.575 48.455 32.05C48.895 32.525 49.115 33.31 49.115 34.41V47.185C49.115 48.28 48.895 49.065 48.455 49.545C48.015 50.02 47.21 50.26 46.04 50.26H40.995C39.825 50.26 39.02 50.02 38.58 49.545C38.14 49.07 37.92 48.285 37.92 47.185V43.73H37.925ZM49.385 19.765C48.105 19.73 46.47 19.585 44.48 19.325C42.485 19.07 40.42 18.65 38.285 18.065C36.145 17.48 34.065 16.685 32.035 15.68C30.005 14.675 28.295 13.37 26.91 11.76C25.485 13.37 23.76 14.675 21.73 15.68C19.7 16.685 17.62 17.48 15.48 18.065C13.34 18.65 11.295 19.07 9.34 19.325C7.385 19.58 5.765 19.73 4.485 19.765C4.34 19.765 4.175 19.73 3.99 19.655C3.805 19.58 3.715 19.345 3.715 18.94V16.69C3.715 16.4 3.77 16.215 3.88 16.14C3.99 16.065 4.19 16.01 4.485 15.975C7.48 15.685 9.985 15.045 11.995 14.055C14.005 13.07 15.615 11.965 16.82 10.74C18.025 9.51499 18.885 8.28999 19.395 7.06499C19.905 5.83999 20.165 4.84499 20.165 4.07499V1.98999C20.165 1.25999 20.3 0.774992 20.575 0.534992C20.85 0.299992 21.37 0.179993 22.14 0.179993H31.515C32.285 0.179993 32.805 0.299992 33.075 0.534992C33.35 0.774992 33.485 1.25499 33.485 1.98999V4.07499C33.485 4.84499 33.75 5.83999 34.28 7.06499C34.81 8.28999 35.695 9.51499 36.94 10.74C38.185 11.965 39.82 13.07 41.85 14.055C43.88 15.04 46.39 15.68 49.39 15.975C49.68 16.01 49.885 16.065 49.995 16.14C50.105 16.215 50.16 16.395 50.16 16.69V18.94C50.16 19.345 50.07 19.58 49.885 19.655C49.7 19.73 49.535 19.765 49.39 19.765H49.385ZM17.36 43.84C18.675 43.84 20.165 43.785 21.83 43.675C23.495 43.565 25.23 43.39 27.04 43.155C28.85 42.915 30.685 42.595 32.55 42.195C34.415 41.79 36.205 41.3 37.925 40.715V36.875C37.925 36.18 37.815 35.725 37.595 35.505C37.375 35.285 36.9 35.175 36.17 35.175H17.525C16.865 35.175 16.42 35.285 16.18 35.505C15.94 35.725 15.825 36.18 15.825 36.875V42.415C15.825 43 15.925 43.385 16.125 43.565C16.325 43.75 16.735 43.84 17.36 43.84Z" fill="#1D6CE0"/>
<path d="M32.715 99.88C32.715 100.975 32.495 101.76 32.055 102.24C31.615 102.715 30.81 102.955 29.645 102.955H24.6C23.43 102.955 22.625 102.715 22.185 102.24C21.745 101.765 21.525 100.98 21.525 99.88V95.495C19.77 97.91 17.695 99.755 15.3 101.035C12.905 102.315 10.5 102.955 8.09003 102.955C6.00503 102.955 4.43503 102.46 3.37503 101.475C2.31503 100.49 1.78503 98.9 1.78503 96.705V58.1C1.78503 57.005 2.00503 56.22 2.44503 55.745C2.88503 55.27 3.68503 55.03 4.86003 55.03H9.90503C11.075 55.03 11.88 55.27 12.32 55.745C12.76 56.22 12.98 57.005 12.98 58.1V73.51H21.535V58.1C21.535 57.005 21.755 56.22 22.195 55.745C22.635 55.27 23.44 55.03 24.61 55.03H29.655C30.825 55.03 31.63 55.27 32.065 55.745C32.505 56.22 32.725 57.005 32.725 58.1V99.885L32.715 99.88ZM15.115 94.175C16.36 94.175 17.5 93.93 18.545 93.435C19.585 92.94 20.58 92.275 21.535 91.435V77.345H12.98V91.93C12.98 92.77 13.165 93.355 13.53 93.685C13.895 94.015 14.425 94.18 15.12 94.18L15.115 94.175ZM49.715 99.88C49.715 100.975 49.495 101.76 49.055 102.24C48.615 102.715 47.81 102.955 46.64 102.955H41.595C40.425 102.955 39.62 102.715 39.185 102.24C38.745 101.765 38.525 100.98 38.525 99.88V58.095C38.525 57 38.745 56.215 39.185 55.74C39.625 55.265 40.425 55.025 41.595 55.025H46.64C47.81 55.025 48.615 55.265 49.055 55.74C49.495 56.215 49.715 57 49.715 58.095V99.88Z" fill="#1D6CE0"/>
<path d="M50.865 153.945C51.375 153.945 51.715 154.035 51.88 154.22C52.045 154.405 52.125 154.695 52.125 155.095V156.63C52.125 157.03 52.04 157.325 51.88 157.505C51.715 157.69 51.375 157.78 50.865 157.78H2.885C2.375 157.78 2.035 157.69 1.87 157.505C1.705 157.32 1.625 157.03 1.625 156.63V155.095C1.625 154.695 1.705 154.4 1.87 154.22C2.035 154.035 2.37 153.945 2.885 153.945H21.255V143.69C21.255 142.595 21.475 141.81 21.915 141.335C22.355 140.86 23.155 140.62 24.325 140.62H29.37C30.54 140.62 31.345 140.86 31.785 141.335C32.225 141.81 32.445 142.595 32.445 143.69V153.945H50.87H50.865ZM33.535 116C33.535 118.89 33.08 121.53 32.165 123.925C31.25 126.32 30.015 128.46 28.465 130.34C26.91 132.225 25.12 133.885 23.09 135.33C21.06 136.775 18.94 138.015 16.73 139.06C14.52 140.1 12.295 140.96 10.07 141.635C7.84 142.31 5.74 142.815 3.765 143.145C3.36 143.22 3.16 143.055 3.16 142.65V140.565C3.16 140.31 3.24 140.135 3.405 140.045C3.57 139.955 3.705 139.89 3.815 139.855C6.335 139.05 8.615 137.965 10.64 136.59C12.67 135.22 14.385 133.61 15.795 131.765C17.2 129.92 18.29 127.845 19.06 125.54C19.83 123.235 20.21 120.75 20.21 118.085V112.93C20.21 111.835 20.43 111.05 20.87 110.57C21.31 110.095 22.11 109.855 23.285 109.855H30.47C31.64 109.855 32.445 110.095 32.885 110.57C33.325 111.045 33.545 111.83 33.545 112.93V116H33.535ZM32.385 134.04C32.385 132.835 32.615 131.71 33.07 130.67C33.525 129.63 34.14 128.715 34.905 127.93C35.675 127.145 36.57 126.525 37.59 126.065C38.615 125.61 39.69 125.38 40.825 125.38C42.03 125.38 43.155 125.61 44.195 126.065C45.235 126.525 46.15 127.145 46.935 127.93C47.72 128.715 48.34 129.63 48.8 130.67C49.255 131.71 49.485 132.835 49.485 134.04C49.485 135.175 49.255 136.25 48.8 137.275C48.34 138.3 47.72 139.195 46.935 139.96C46.15 140.73 45.235 141.34 44.195 141.795C43.155 142.255 42.03 142.48 40.825 142.48C39.69 142.48 38.615 142.25 37.59 141.795C36.565 141.34 35.67 140.725 34.905 139.96C34.14 139.195 33.525 138.295 33.07 137.275C32.61 136.25 32.385 135.175 32.385 134.04Z" fill="#1D6CE0"/>
<path d="M0.255005 170.34C0.255005 169.57 0.400004 168.85 0.695004 168.175C0.985003 167.5 1.39001 166.895 1.90001 166.365C2.41001 165.835 3.005 165.425 3.68 165.13C4.355 164.84 5.08001 164.69 5.84501 164.69H28.545C29.715 164.69 30.52 164.93 30.955 165.405C31.395 165.88 31.615 166.665 31.615 167.765V185.915C31.615 186.83 31.43 187.525 31.065 188C30.7 188.475 29.93 188.715 28.76 188.715H15.16C14.43 188.715 13.88 188.835 13.515 189.07C13.15 189.31 12.965 189.845 12.965 190.69V201.6C12.965 202.44 13.15 203.025 13.515 203.355C13.88 203.685 14.41 203.85 15.105 203.85C17.045 203.85 19.09 203.465 21.245 202.7C23.4 201.93 25.53 200.935 27.635 199.71C29.735 198.485 31.73 197.095 33.61 195.545C35.49 193.99 37.13 192.41 38.52 190.8V167.77C38.52 166.675 38.74 165.89 39.18 165.41C39.62 164.935 40.42 164.695 41.59 164.695H46.635C47.805 164.695 48.61 164.935 49.05 165.41C49.49 165.885 49.71 166.67 49.71 167.77V209.55C49.71 210.645 49.49 211.43 49.05 211.91C48.61 212.385 47.805 212.625 46.635 212.625H41.59C40.42 212.625 39.615 212.385 39.18 211.91C38.74 211.435 38.52 210.65 38.52 209.55V194.085C36.985 196.39 35.075 198.655 32.79 200.885C30.505 203.115 28.02 205.1 25.335 206.835C22.65 208.57 19.825 209.97 16.865 211.03C13.905 212.09 10.98 212.62 8.09 212.62C6.005 212.62 4.435 212.125 3.375 211.14C2.315 210.155 1.785 208.565 1.785 206.37V187.67C1.785 186.755 1.97 186.06 2.335 185.585C2.7 185.11 3.465 184.87 4.64 184.87H18.24C18.97 184.87 19.52 184.75 19.885 184.515C20.25 184.28 20.435 183.74 20.435 182.9V170.505C20.435 169.665 20.25 169.125 19.885 168.89C19.52 168.655 18.97 168.535 18.24 168.535H11.165C11.385 169.155 11.495 169.76 11.495 170.345C11.495 171.115 11.35 171.835 11.055 172.51C10.76 173.185 10.35 173.78 9.82 174.29C9.29 174.8 8.685 175.205 8.01 175.495C7.335 175.79 6.61 175.935 5.84501 175.935C5.08001 175.935 4.355 175.79 3.68 175.495C3.005 175.205 2.41001 174.8 1.90001 174.29C1.39001 173.78 0.985003 173.185 0.695004 172.51C0.400004 171.835 0.255005 171.11 0.255005 170.345V170.34Z" fill="#1D6CE0"/>
</g>
<defs>
<clipPath id="clip0_15526_860">
<rect width="78" height="213" fill="white"/>
</clipPath>
</defs>
</svg>
