<svg width="56" height="56" viewBox="0 0 56 56" fill="none" xmlns="http://www.w3.org/2000/svg">
<ellipse cx="27.9996" cy="52.8886" rx="6.22222" ry="1.55556" fill="black" fill-opacity="0.25"/>
<g filter="url(#filter0_d_17618_9463)">
<path d="M27.9997 51.3337C37.333 42.0003 46.6663 33.643 46.6663 23.3337C46.6663 13.0243 38.309 4.66699 27.9997 4.66699C17.6904 4.66699 9.33301 13.0243 9.33301 23.3337C9.33301 33.643 18.6663 42.0003 27.9997 51.3337Z" fill="#CDCED6"/>
<path d="M27.9997 51.3337C37.333 42.0003 46.6663 33.643 46.6663 23.3337C46.6663 13.0243 38.309 4.66699 27.9997 4.66699C17.6904 4.66699 9.33301 13.0243 9.33301 23.3337C9.33301 33.643 18.6663 42.0003 27.9997 51.3337Z" stroke="#2B2D36" stroke-width="2.33333" stroke-linecap="round" stroke-linejoin="round"/>
</g>
<path d="M9.33301 23.333H46.6663" stroke="#2B2D36" stroke-width="6.22222" stroke-linecap="round"/>
<path d="M38.889 23.3332C38.889 28.2993 34.2155 32.6666 28.0001 32.6666C21.7847 32.6666 17.1112 28.2993 17.1112 23.3332C17.1112 18.3672 21.7847 13.9999 28.0001 13.9999C34.2155 13.9999 38.889 18.3672 38.889 23.3332Z" fill="#F0F0F5" stroke="#2B2D36" stroke-width="3.11111" stroke-linecap="round" stroke-linejoin="round"/>
<path d="M28.0003 31.889C33.4457 31.889 38.1114 28.1853 38.1114 23.3334C38.1114 18.4816 33.4457 14.7779 28.0003 14.7779C22.5549 14.7779 17.8892 18.4816 17.8892 23.3334C17.8892 28.1853 22.5549 31.889 28.0003 31.889Z" fill="#F0F0F5" stroke="#2B2D36" stroke-width="1.55556" stroke-linecap="round" stroke-linejoin="round"/>
<ellipse cx="23.3329" cy="22.556" rx="1.55556" ry="2.33333" fill="#2B2D36"/>
<ellipse cx="32.6669" cy="22.556" rx="1.55556" ry="2.33333" fill="#2B2D36"/>
<defs>
<filter id="filter0_d_17618_9463" x="6.61046" y="3.5" width="42.7781" height="52.1111" filterUnits="userSpaceOnUse" color-interpolation-filters="sRGB">
<feFlood flood-opacity="0" result="BackgroundImageFix"/>
<feColorMatrix in="SourceAlpha" type="matrix" values="0 0 0 0 0 0 0 0 0 0 0 0 0 0 0 0 0 0 127 0" result="hardAlpha"/>
<feOffset dy="1.55556"/>
<feGaussianBlur stdDeviation="0.777778"/>
<feComposite in2="hardAlpha" operator="out"/>
<feColorMatrix type="matrix" values="0 0 0 0 0 0 0 0 0 0 0 0 0 0 0 0 0 0 0.25 0"/>
<feBlend mode="normal" in2="BackgroundImageFix" result="effect1_dropShadow_17618_9463"/>
<feBlend mode="normal" in="SourceGraphic" in2="effect1_dropShadow_17618_9463" result="shape"/>
</filter>
</defs>
</svg>
