<svg width="36" height="36" viewBox="0 0 36 36" fill="none" xmlns="http://www.w3.org/2000/svg">
<g id="fluent:temperature-16-regular">
<g id="Union">
<mask id="path-1-inside-1_17618_9037" fill="white">
<path fill-rule="evenodd" clip-rule="evenodd" d="M18 3C15.2386 3 13 5.23858 13 8V21.101C11.7628 22.3636 11 24.0927 11 26C11 29.866 14.134 33 18 33C21.866 33 25 29.866 25 26C25 24.0927 24.2372 22.3636 23 21.101V8C23 5.23858 20.7614 3 18 3Z"/>
</mask>
<path d="M13 21.101L14.4285 22.5008L15 21.9176V21.101H13ZM23 21.101H21V21.9176L21.5715 22.5008L23 21.101ZM15 8C15 6.34315 16.3431 5 18 5V1C14.134 1 11 4.13401 11 8H15ZM15 21.101V8H11V21.101H15ZM13 26C13 24.637 13.5428 23.4047 14.4285 22.5008L11.5715 19.7012C9.98285 21.3224 9 23.5484 9 26H13ZM18 31C15.2386 31 13 28.7614 13 26H9C9 30.9706 13.0294 35 18 35V31ZM23 26C23 28.7614 20.7614 31 18 31V35C22.9706 35 27 30.9706 27 26H23ZM21.5715 22.5008C22.4572 23.4047 23 24.637 23 26H27C27 23.5484 26.0171 21.3224 24.4285 19.7012L21.5715 22.5008ZM21 8V21.101H25V8H21ZM18 5C19.6569 5 21 6.34315 21 8H25C25 4.13401 21.866 1 18 1V5Z" fill="#A9ABB8" mask="url(#path-1-inside-1_17618_9037)"/>
</g>
<path id="Union_2" fill-rule="evenodd" clip-rule="evenodd" d="M18 11C17.4477 11 17 11.4477 17 12V23.1707C15.8348 23.5825 15 24.6938 15 26C15 27.6569 16.3431 29 18 29C19.6569 29 21 27.6569 21 26C21 24.6938 20.1652 23.5825 19 23.1707V12C19 11.4477 18.5523 11 18 11Z" fill="#A9ABB8"/>
</g>
</svg>
