<svg width="36" height="36" viewBox="0 0 36 36" fill="none" xmlns="http://www.w3.org/2000/svg">
<path d="M5.82982 30C5.05934 30 4.5783 29.1654 4.96455 28.4987L17.1345 7.49345C17.5197 6.82853 18.4798 6.82853 18.865 7.49345L31.0349 28.4987C31.4212 29.1653 30.9401 30 30.1696 30H5.82982ZM6.93646 28.0493C6.8203 28.2493 6.9646 28.5 7.19588 28.5H28.8036C29.0349 28.5 29.1791 28.2493 29.063 28.0493L18.2591 9.44669C18.1435 9.24757 17.8559 9.24757 17.7403 9.44669L6.93646 28.0493ZM17.9997 26.424C18.2617 26.424 18.4812 26.3355 18.6582 26.1585C18.8352 25.9815 18.9232 25.762 18.9222 25.5C18.9212 25.238 18.8327 25.019 18.6567 24.843C18.4807 24.667 18.2617 24.578 17.9997 24.576C17.7377 24.574 17.5187 24.6625 17.3427 24.8415C17.1667 25.0205 17.0782 25.24 17.0772 25.5C17.0762 25.76 17.1647 25.9795 17.3427 26.1585C17.5207 26.3375 17.7397 26.426 17.9997 26.424ZM17.2497 22.3275C17.2497 22.7417 17.5855 23.0775 17.9997 23.0775C18.4139 23.0775 18.7497 22.7417 18.7497 22.3275V16.3275C18.7497 15.9133 18.4139 15.5775 17.9997 15.5775C17.5855 15.5775 17.2497 15.9133 17.2497 16.3275V22.3275Z" fill="#A9ABB8"/>
</svg>
