<svg width="36" height="36" viewBox="0 0 36 36" fill="none" xmlns="http://www.w3.org/2000/svg">
<g id="ph:waves">
<path id="Vector" d="M28.784 23.5406C28.9391 23.7235 29.0142 23.9594 28.9927 24.1966C28.9713 24.4339 28.8551 24.6531 28.6695 24.8062C26.6829 26.4251 24.9091 27 23.291 27C21.1647 27 19.3062 26.0077 17.5771 25.0875C14.6761 23.5395 12.1711 22.2029 8.52851 25.1707C8.43615 25.2473 8.32928 25.3052 8.21407 25.3409C8.09886 25.3767 7.97759 25.3897 7.85723 25.3792C7.73688 25.3687 7.61984 25.3349 7.51285 25.2797C7.40586 25.2245 7.31105 25.149 7.23387 25.0577C7.15669 24.9663 7.09867 24.8608 7.06317 24.7472C7.02766 24.6337 7.01537 24.5144 7.027 24.3961C7.03863 24.2779 7.07395 24.1631 7.13092 24.0584C7.1879 23.9536 7.2654 23.861 7.35896 23.7858C11.9559 20.0418 15.4062 21.8823 18.4514 23.5068C21.3524 25.0537 23.8574 26.3902 27.5 23.4236C27.6864 23.2726 27.926 23.2002 28.1665 23.2221C28.407 23.2441 28.6289 23.3585 28.784 23.5406ZM27.4942 17.128C23.8517 20.0958 21.3467 18.7593 18.4457 17.2113C15.4005 15.5879 11.9502 13.7473 7.35323 17.4914C7.16858 17.6445 7.05296 17.8632 7.03158 18.0997C7.0102 18.3363 7.0848 18.5715 7.23911 18.7543C7.39342 18.937 7.61493 19.0523 7.85538 19.0752C8.09583 19.098 8.33573 19.0265 8.52279 18.8763C12.1653 15.9085 14.6704 17.245 17.5714 18.793C19.3005 19.7144 21.159 20.7056 23.2852 20.7056C24.9034 20.7056 26.6772 20.1307 28.6638 18.5118C28.7574 18.4366 28.8349 18.344 28.8918 18.2392C28.9488 18.1345 28.9841 18.0197 28.9957 17.9015C29.0074 17.7832 28.9951 17.6639 28.9596 17.5504C28.9241 17.4368 28.8661 17.3313 28.7889 17.24C28.7117 17.1486 28.6169 17.0731 28.5099 17.0179C28.4029 16.9627 28.2859 16.9289 28.1655 16.9184C28.0452 16.9079 27.9239 16.9209 27.8087 16.9567C27.6935 16.9924 27.5866 17.0503 27.4942 17.1269V17.128ZM8.52279 12.5773C12.1653 9.61067 14.6704 10.9472 17.5714 12.4941C19.3005 13.4166 21.159 14.4066 23.2852 14.4066C24.9034 14.4066 26.6772 13.8306 28.6638 12.2128C28.7574 12.1377 28.8349 12.045 28.8918 11.9403C28.9488 11.8356 28.9841 11.7208 28.9957 11.6025C29.0074 11.4843 28.9951 11.365 28.9596 11.2514C28.9241 11.1379 28.8661 11.0324 28.7889 10.941C28.7117 10.8496 28.6169 10.7742 28.5099 10.719C28.4029 10.6638 28.2859 10.6299 28.1655 10.6194C28.0452 10.6089 27.9239 10.6219 27.8087 10.6577C27.6935 10.6935 27.5866 10.7514 27.4942 10.8279C23.8517 13.7957 21.3467 12.4592 18.4457 10.9112C15.4005 9.29004 11.9502 7.44952 7.35323 11.1936C7.25641 11.2676 7.17572 11.3601 7.11596 11.4654C7.05619 11.5708 7.01858 11.6868 7.00534 11.8067C6.99211 11.9267 7.00352 12.048 7.03891 12.1634C7.0743 12.2789 7.13294 12.3862 7.21135 12.479C7.28976 12.5718 7.38633 12.6481 7.49534 12.7035C7.60434 12.7588 7.72355 12.7921 7.84588 12.8012C7.96822 12.8104 8.09118 12.7953 8.20746 12.7569C8.32374 12.7184 8.43098 12.6573 8.52279 12.5773Z" fill="#A9ABB8"/>
</g>
</svg>
