<svg width="36" height="36" viewBox="0 0 36 36" fill="none" xmlns="http://www.w3.org/2000/svg">
<path d="M27.375 9.75021C27.375 9.00853 27.5949 8.28351 28.007 7.66682C28.419 7.05014 29.0047 6.56949 29.6899 6.28566C30.3752 6.00183 31.1292 5.92757 31.8566 6.07227C32.584 6.21696 33.2522 6.57411 33.7767 7.09856C34.3011 7.62301 34.6583 8.29119 34.8029 9.01862C34.9476 9.74605 34.8734 10.5001 34.5896 11.1853C34.3057 11.8705 33.8251 12.4562 33.2084 12.8682C32.5917 13.2803 31.8667 13.5002 31.125 13.5002H1.875M25.125 26.2502C25.125 26.9919 25.3449 27.7169 25.757 28.3336C26.169 28.9503 26.7547 29.4309 27.4399 29.7148C28.1252 29.9986 28.8792 30.0728 29.6066 29.9282C30.334 29.7835 31.0022 29.4263 31.5267 28.9019C32.0511 28.3774 32.4083 27.7092 32.5529 26.9818C32.6976 26.2544 32.6234 25.5004 32.3396 24.8151C32.0557 24.1299 31.5751 23.5443 30.9584 23.1322C30.3417 22.7201 29.6167 22.5002 28.875 22.5002H21.375M1.875 18.0002H26.625" stroke="#A9ABB8" stroke-width="2" stroke-linecap="round" stroke-linejoin="round"/>
</svg>
