<svg width="30" height="22" viewBox="0 0 30 22" fill="none" xmlns="http://www.w3.org/2000/svg">
<path d="M2.67744 18.8317L2.67663 18.8309C1.5534 17.7171 1 16.3852 1 14.7755C1 13.3089 1.49269 12.0165 2.51242 10.8605C3.51373 9.72542 4.72611 9.1345 6.20061 9.0509L7.00891 9.00506L7.13231 8.20493C7.43298 6.25552 8.31831 4.66715 9.80743 3.39878C11.2974 2.12966 13.0139 1.5 15 1.5C17.2402 1.5 19.1103 2.27156 20.6694 3.83061C22.2284 5.38965 23 7.25978 23 9.5V11V12H24H24.9073C26.0832 12.041 27.0345 12.4638 27.8195 13.277C28.6088 14.0947 29 15.0662 29 16.25C29 17.4631 28.5932 18.4495 27.7722 19.2716C26.9488 20.0932 25.9621 20.5 24.75 20.5H6.75C5.14022 20.5 3.80201 19.9495 2.67744 18.8317Z" stroke="#A9ABB8" stroke-width="2"/>
</svg>
