<svg width="284" height="187" viewBox="0 0 284 187" fill="none" xmlns="http://www.w3.org/2000/svg">
<path d="M174.289 5.832C174.486 6.53356 174.873 6.95646 175.705 7.00235C176.371 7.03841 177.03 7.37936 177.305 8.10058C177.813 9.42173 178.843 10.1495 180.157 10.6642C180.898 10.261 181.459 9.68727 181.803 8.88737C181.947 8.55626 182.173 8.26449 182.364 7.95634C183.121 6.73681 184.291 6.64502 185.54 6.81877C185.783 6.85155 186.022 7.00563 186.232 7.1466C186.612 7.40886 186.973 7.70391 187.265 7.92683C187.435 7.92683 187.504 7.94978 187.537 7.92683C188.848 6.9499 190.359 6.6778 191.949 6.62863C192.464 6.61224 192.969 6.43193 193.483 6.34997C194.608 6.17294 195.634 5.5304 196.831 5.66809C197.057 5.69431 197.332 5.54023 197.545 5.40254C198.332 4.89769 199.171 4.44528 199.866 3.82896C201.053 2.77991 202.42 2.7668 203.843 2.93071C204.069 2.95694 204.282 3.17986 204.482 3.3405C204.685 3.50441 204.846 3.72406 205.056 3.87486C205.367 4.10106 205.767 4.25186 206.069 3.95354C206.626 3.40278 207.298 3.4454 207.98 3.44868C209.029 3.44868 210.078 3.41262 211.127 3.45852C211.891 3.49458 212.448 3.22248 212.848 2.59632C213.071 2.24555 213.33 1.90788 213.491 1.53088C214.081 0.147438 215.691 -0.481994 217.313 0.435928C218.307 0.996517 219.287 1.3309 220.425 1.21288C220.838 1.17027 221.264 1.18338 221.68 1.21944C221.985 1.24567 222.306 1.30468 222.575 1.43909C223.273 1.78659 223.955 2.16687 224.627 2.56026C225.257 2.93071 225.867 3.32738 226.352 3.89781C226.847 4.48134 227.414 4.72722 228.135 4.22892C228.338 4.08795 228.627 3.99288 228.869 4.00599C229.873 4.05844 230.705 3.62243 231.505 3.12413C232.512 2.4947 233.564 2.21932 234.767 2.27177C235.918 2.32423 236.868 2.80286 237.416 3.68144C238.009 4.63542 238.704 5.55335 239.042 6.69747C239.304 7.58261 239.383 8.43497 239.363 9.32011C239.344 10.179 239.422 10.9461 240.029 11.6575C240.458 12.1591 240.678 12.8377 240.976 13.4442C241.153 13.8081 241.435 14.0409 241.825 14.0572C242.701 14.09 243.284 14.5949 243.779 15.2276C244.274 15.8603 244.792 16.316 245.671 16.4635C246.543 16.611 247.261 17.2405 247.743 18.0371C248.106 18.6337 248.575 19.1025 249.201 19.4271C249.654 19.6598 250.044 19.6926 250.523 19.4205C253.234 17.8633 253.24 17.8732 256.135 18.024C256.394 18.0371 256.712 17.9978 256.902 18.1289C257.656 18.6403 258.492 18.6239 259.325 18.578C260.521 18.5124 261.436 19.0075 262.223 19.8565C262.862 20.5483 263.537 21.2072 264.186 21.8924C264.777 22.5152 265.209 23.1971 265.14 24.1183C265.078 24.9477 265.232 25.7837 264.849 26.5934C264.626 27.0655 264.878 27.4655 265.393 27.4786C266.101 27.4983 266.691 27.7474 267.284 28.0982C268.425 28.7702 268.96 29.8521 269.065 31.0618C269.16 32.1797 269.304 33.3402 268.717 34.4482C268.494 34.8679 268.622 35.4743 268.602 35.9989C268.576 36.7758 268.724 37.5823 268.232 38.2838C268.202 38.3232 268.193 38.3822 268.186 38.4314C268.104 39.205 268.124 39.982 267.707 40.7065C267.321 41.3785 267.068 42.126 266.714 42.9292C266.907 43.1652 267.114 43.4603 267.363 43.7094C267.747 44.0864 268.032 44.4995 268.127 45.047C268.327 46.2304 269.248 46.9058 270.071 47.6073C270.451 47.9319 271.022 48.0237 271.471 48.2826C271.848 48.499 272.172 48.8039 272.644 49.1645C272.785 48.7055 272.884 48.3744 272.989 48.0433C273.146 47.5417 273.471 47.2434 274.012 47.2238C274.431 47.2074 274.857 47.2598 275.267 47.1975C276.86 46.9615 277.401 48.1548 277.526 49.3678C277.572 49.83 277.568 50.2988 277.591 50.8528C278.44 51.3839 279.263 51.9281 280.116 52.4231C280.421 52.6002 280.781 52.7182 281.129 52.7706C282.24 52.9411 282.902 53.6033 283.246 54.6261C283.666 55.8784 283.551 57.5176 282.273 58.6584C281.935 58.9568 281.591 59.1371 281.148 59.1108C280.483 59.0715 279.742 59.3567 279.188 58.8191C278.722 58.3667 278.182 58.1011 277.618 57.8159C277.162 57.5864 276.788 57.193 276.378 56.875C276.133 56.6882 275.883 56.5046 275.579 56.2784C275.32 56.498 275.041 56.6554 274.874 56.8947C274.425 57.5373 274.067 58.2454 273.598 58.8715C272.51 60.3304 272.585 62.0056 272.612 63.6841C272.618 64.1496 272.864 64.4971 273.185 64.7593C273.585 65.0872 274.044 65.3462 274.487 65.6215C274.792 65.815 275.143 65.9494 275.411 66.1788C276.555 67.1623 276.549 67.1722 277.824 67.4672C278.49 68.5458 278.618 69.6145 277.768 70.6701C277.365 70.8603 276.87 70.975 276.559 71.2766C276.287 71.5421 276.215 72.0142 276.067 72.401C275.995 72.5945 275.982 72.8141 275.893 73.001C275.703 73.4009 275.415 73.6861 274.933 73.6927C274.618 73.6992 274.303 73.7124 273.989 73.7124C272.254 73.7091 271.399 72.9977 270.95 71.2307C270.894 71.0143 270.714 70.8275 270.596 70.634C270.087 70.8734 270.104 71.2733 270.107 71.6274C270.117 72.3224 269.943 72.9551 269.684 73.6009C269.179 74.8532 268.75 76.1383 268.294 77.4103C268.242 77.5578 268.166 77.7119 268.17 77.8594C268.206 79.3707 267.534 80.6984 266.983 82.0294C266.655 82.8227 266.675 83.485 266.878 84.2849C267.281 85.8716 267.373 87.4779 266.639 89.0285C266.016 90.3431 265.068 91.284 263.587 91.425C262.183 91.5594 260.997 92.1659 259.817 92.8445C259.207 93.1953 258.751 93.6706 258.489 94.3394C258.279 94.8738 257.912 95.3688 257.804 95.9195C257.538 97.2931 256.764 98.1553 255.568 98.5127C255.04 99.4896 254.594 100.371 254.086 101.217C253.857 101.598 253.748 101.968 253.752 102.401C253.758 103.45 253.712 104.502 253.765 105.548C253.817 106.61 253.404 107.476 252.794 108.285C252.132 109.164 251.49 110.059 250.814 110.924C249.805 112.213 249.192 113.727 248.379 115.127C248.077 115.645 247.766 116.078 247.251 116.379C245.936 117.143 245.117 118.353 244.327 119.654C244.412 119.89 244.481 120.14 244.589 120.372C244.936 121.133 244.894 121.877 244.589 122.644C243.818 124.578 243.1 126.532 242.31 128.46C242.14 128.876 241.825 129.289 241.468 129.561C240.596 130.224 239.685 130.85 238.649 131.237C238.36 131.345 238.045 131.404 237.74 131.427C237.272 131.456 236.793 131.479 236.328 131.427C235.183 131.296 234.21 131.653 233.216 132.21C232.184 132.787 231.059 133.233 229.817 133.148C228.728 133.072 227.614 133.335 226.561 132.843C226.391 132.764 226.152 132.83 225.945 132.836C224.775 132.879 223.66 132.709 222.641 132.079C222.332 131.889 221.975 131.784 221.595 131.62C220.87 131.984 220.428 132.63 220.038 133.302C219.398 134.403 218.654 135.387 217.576 136.105C217.333 136.266 217.186 136.577 217.009 136.833C216.618 137.39 216.241 137.957 215.858 138.521C215.31 139.327 214.507 139.832 213.675 140.265C212.707 140.767 211.98 141.422 211.58 142.468C211.357 143.045 210.986 143.576 210.629 144.091C210.291 144.579 209.826 144.946 209.2 144.943C208.118 144.933 207 145.209 205.993 144.52C205.672 144.301 205.266 144.301 204.961 144.563C204.466 144.986 203.889 144.93 203.318 144.923C202.679 144.914 202.112 145.032 201.528 145.366C200.266 146.087 198.771 146.291 197.516 147.067C197.313 147.192 197.004 147.149 196.749 147.189C195.559 147.372 194.428 147.671 193.444 148.454C192.752 149.002 191.972 149.438 191.018 149.441C190.664 149.441 190.313 149.641 189.953 149.687C189.389 149.762 188.766 149.949 188.258 149.795C187.242 149.48 186.415 149.847 185.57 150.247C184.619 150.7 183.675 150.68 182.718 150.28C182.436 150.162 182.137 149.936 181.865 149.965C180.908 150.07 180.134 149.687 179.423 149.133C179.246 149.234 179.072 149.28 178.99 149.392C178.593 149.926 178.036 150.025 177.446 149.936C176.777 149.831 176.118 149.667 175.463 149.507C175.128 149.425 174.771 149.434 174.633 149.743C174.433 150.192 174.138 150.48 173.755 150.775C173.447 151.011 173.266 151.447 173.106 151.824C172.883 152.349 172.696 152.893 172.555 153.444C172.057 155.388 170.762 156.552 168.955 157.266C168.041 157.627 167.146 158.037 166.264 158.466C165.379 158.896 164.93 159.6 165.031 160.626C165.077 161.095 165.054 161.571 165.034 162.043C164.985 163.266 164.28 164.065 163.09 163.987C161.337 163.872 159.773 164.301 158.366 165.308C157.943 165.61 157.514 165.675 157.039 165.675C156.567 165.675 156.091 165.636 155.622 165.685C154.757 165.77 154.134 165.262 153.482 164.849C153.292 164.728 153.118 164.423 153.108 164.197C153.075 163.377 152.629 162.725 152.364 161.879C151.921 162.023 151.551 162.164 151.171 162.259C150.816 162.348 150.403 162.302 150.102 162.472C149.42 162.859 148.702 162.892 147.968 162.856C147.341 162.826 146.801 162.987 146.483 163.541C145.742 164.823 144.552 164.574 143.414 164.465C143.191 164.442 142.958 164.22 142.781 164.042C142.454 163.711 142.165 163.344 141.785 162.908C141.513 163.125 141.273 163.302 141.054 163.495C140.424 164.046 139.818 164.626 139.169 165.157C138.303 165.865 137.372 165.898 136.415 165.318C136.281 165.236 136.117 165.193 136.002 165.095C135.143 164.347 134.173 164.331 133.219 164.79C132.199 165.278 131.301 165.108 130.399 164.551C130.094 164.364 129.773 164.203 129.449 164.023C128.714 164.482 128.186 165.082 127.875 165.79C126.951 167.894 125.18 168.475 123.135 168.403C121.925 168.36 120.732 168.498 119.532 168.498C118.683 168.498 118.02 168.848 117.483 169.481C117.348 169.642 117.194 169.789 117.073 169.96C116.67 170.511 116.155 170.76 115.457 170.72C114.732 170.681 114.06 170.756 113.359 171.153C112.585 171.592 111.615 171.415 110.736 171.245C110.507 171.199 110.284 170.986 110.113 170.799C109.34 169.943 108.504 169.127 107.851 168.186C107.422 167.567 107.176 166.777 107.009 166.029C106.845 165.292 106.422 164.829 105.871 164.406C105.219 163.902 104.517 163.898 103.802 164.216C103.471 164.364 103.163 164.57 102.858 164.774C101.767 165.495 100.557 165.898 99.3309 166.344C97.9802 166.836 96.6656 166.731 95.3248 166.79C94.5183 166.822 93.9545 166.547 93.5742 165.76C92.9874 164.547 91.9482 163.738 90.8106 163.056C90.7221 163.003 90.6237 162.928 90.5287 162.928C89.2895 162.928 88.0273 162.593 86.8209 163.167C86.4013 163.367 85.9521 163.511 85.5227 163.692C84.4802 164.131 83.6672 164.895 83.0082 165.764C82.087 166.973 80.7626 167.436 79.4415 167.858C78.812 168.058 78.1432 168.199 77.4909 168.36C76.5893 168.58 75.6517 168.622 74.7601 168.075C73.9569 167.58 73.1504 167.118 72.5013 166.406C72.2325 166.111 71.8522 165.819 71.4785 165.741C70.6523 165.567 69.8524 165.636 69.7574 166.721C69.2984 166.75 68.9837 166.76 68.6755 166.793C67.8986 166.872 67.2331 166.714 66.7446 166.032C66.1676 165.229 65.3513 164.97 64.3941 165.098C64.2925 165.111 64.1843 165.092 64.0794 165.101C62.9385 165.213 61.8927 165.026 61.0502 164.164C60.9847 164.098 60.8568 164.092 60.6831 164.033C60.2208 164.239 59.6766 164.429 59.1882 164.708C58.6013 165.042 58.0801 165.426 57.8113 166.141C57.4998 166.97 56.995 167.717 56.218 168.232C56.0049 168.373 55.8213 168.583 55.6771 168.799C55.1657 169.547 54.5494 170.117 53.6741 170.465C52.3529 170.992 51.6612 172.251 50.7597 173.258C50.6089 173.428 50.5564 173.746 50.5662 173.992C50.6252 175.241 50.2417 176.356 49.645 177.424C49.4942 177.697 49.4156 178.008 49.2648 178.28C49.0386 178.687 49.0648 179.083 49.2254 179.49C49.3238 179.732 49.4352 179.968 49.5467 180.204C50.0286 181.214 50.1696 182.276 50.1204 183.394C50.0876 184.089 49.9598 184.706 49.6713 185.348C49.3893 185.978 49.0582 186.404 48.3796 186.574C47.5732 186.777 46.7962 186.695 46.111 186.269C45.8422 186.102 45.6455 185.696 45.5668 185.365C45.4193 184.732 45.2161 184.165 44.5932 183.719C44.3735 183.916 44.1244 184.093 43.9342 184.322C43.5245 184.817 43.0229 185.161 42.4754 185.489C42.0984 185.715 41.7476 185.869 41.3149 185.86C41.0002 185.853 40.6822 185.827 40.3707 185.866C39.5381 185.971 38.8398 185.666 38.1743 185.214C36.5319 184.099 36.0926 182.585 36.8728 180.693C37.4432 179.316 37.4137 179.254 36.0139 178.946C35.1746 178.762 34.4469 178.415 33.9092 177.7C33.565 177.241 33.1257 176.854 32.7618 176.408C32.5323 176.13 32.2209 175.818 32.1914 175.5C32.1029 174.572 31.4669 174.077 30.7883 173.733C30.0212 173.343 29.6147 172.737 29.2475 172.028C28.4541 170.501 27.7428 168.937 27.2215 167.295C27.0445 166.741 26.7757 166.423 26.2282 166.203C25.3725 165.859 24.73 165.249 24.589 164.249C24.1235 164.062 23.7006 163.859 23.258 163.721C22.4122 163.459 21.5533 163.266 20.9075 162.564C20.7305 162.371 20.3371 162.338 20.0355 162.302C19.6749 162.259 19.2979 162.253 18.9373 162.295C17.6227 162.449 16.6621 161.813 15.6917 161.026C14.0133 159.666 12.5905 158.073 11.2005 156.443C10.8956 156.086 10.5973 155.709 10.0891 155.621C8.91551 155.414 8.34181 154.506 7.88612 153.572C7.45667 152.693 7.21079 151.726 6.86657 150.805C6.75839 150.516 6.64365 150.202 6.4404 149.979C5.15203 148.559 4.42752 146.822 3.65057 145.117C3.52271 144.838 3.41125 144.527 3.40469 144.228C3.37847 142.871 2.69986 141.868 1.75243 140.983C0.919748 140.206 0.391942 139.288 0.424725 138.092C0.447673 137.256 0.368994 136.416 0.355881 135.577C0.339489 134.594 0.614867 133.712 1.35904 133.03C1.86062 132.568 1.93274 132.096 1.55246 131.502C0.772225 130.286 0.801729 128.902 0.936139 127.552C1.0017 126.906 1.35248 126.283 1.60491 125.66C1.75899 125.273 1.95569 124.903 2.15567 124.536C2.54906 123.811 2.50316 123.139 1.97864 122.49C1.78194 122.248 1.62786 121.972 1.46067 121.707C0.83779 120.733 0.72305 119.651 0.831234 118.54C0.923026 117.592 0.893522 116.671 0.709937 115.727C0.516518 114.721 0.683711 113.74 1.41805 112.94C1.70654 112.626 1.8639 112.268 1.97208 111.842C2.12288 111.249 2.41465 110.692 2.66708 110.075C3.46698 110.019 4.19149 109.967 4.92255 109.918C5.48641 109.465 6.06995 109.026 6.62398 108.554C7.41733 107.879 7.9353 107.072 7.85662 105.964C7.814 105.391 7.83695 104.81 7.85006 104.233C7.8894 102.525 8.67291 101.745 10.3514 101.729C10.5579 101.729 10.7645 101.729 10.9022 101.729C11.7512 100.791 12.538 99.8928 13.3642 99.0372C13.61 98.7815 13.9477 98.5782 14.2821 98.4537C15.0689 98.1586 15.6032 97.621 15.9376 96.8735C16.4064 95.8277 17.0719 95.0082 18.2259 94.6639C18.5176 94.5754 18.7701 94.3558 19.0323 94.182C19.4487 93.9034 19.6945 93.5198 19.7273 93.0117C19.7339 92.9068 19.7437 92.8019 19.7372 92.697C19.6126 90.3333 21.0124 88.8384 22.7106 87.5304C23.0548 87.2648 23.3564 87.0059 23.4482 86.5239C22.8942 85.8748 22.3336 85.1995 21.7533 84.5406C20.6846 83.3243 20.4912 81.9704 21.019 80.4591C21.6517 78.6396 21.6353 78.6298 23.4843 78.6265C24.0088 78.6265 24.5333 78.6396 25.0578 78.6331C25.5791 78.6298 25.9889 78.856 26.2216 79.3019C26.5331 79.8985 26.7724 80.4984 26.8379 81.2164C26.9953 83.0096 26.1954 84.4488 25.3791 85.9109C25.2775 86.0912 25.1627 86.2617 25.0611 86.442C25.0382 86.4813 25.0611 86.5403 25.0611 86.6321C25.3463 87.1468 25.8282 87.0124 26.2839 86.9141C26.4282 86.8846 26.5921 86.7829 26.674 86.6649C27.4903 85.4847 28.7984 84.8192 29.6999 83.7341C29.9327 83.4522 30.1621 83.1571 30.4342 82.9178C31.3522 82.1146 32.1422 81.2262 32.5586 80.0526C32.575 80.0034 32.5979 79.951 32.6307 79.9149C33.5683 78.9249 34.178 77.6857 35.0337 76.6464C35.7057 75.8334 36.1057 75.0106 36.0696 73.9451C36.0401 73.1157 36.0434 72.2929 36.486 71.5028C36.804 70.9389 36.5483 70.2767 36.4335 69.6571C36.3089 68.9916 36.2237 68.3163 36.1942 67.641C36.1778 67.2869 36.3024 66.9263 36.3876 66.5722C36.6302 65.5724 37.2203 65.0314 38.2989 65.1331C38.4529 65.1462 38.6169 65.097 38.7677 65.1134C39.7282 65.2249 40.3576 64.7233 40.8559 63.9857C41.1477 63.5529 41.4001 63.0841 41.7378 62.6875C42.1836 62.1629 42.7049 61.8285 43.472 61.7728C44.4522 61.6974 45.416 61.3893 46.3864 61.1729C46.4848 61.1499 46.5831 61.0975 46.6683 61.0418C47.6781 60.3927 48.6681 59.7141 49.6942 59.0977C50.5761 58.5667 51.2219 57.8848 51.576 56.898C51.7661 56.3636 52.012 55.8194 52.3529 55.3736C52.9004 54.6491 53.0381 53.8623 52.9725 53.0034C52.9037 52.0986 53.084 51.2528 53.4413 50.4135C54.2904 48.4236 56.4475 47.981 58.0145 49.5054C58.5587 50.0332 58.8275 50.0496 59.3226 49.5645C59.5094 49.3809 59.6668 49.1678 59.8536 48.9842C60.824 48.0335 61.7256 47.8663 62.9877 48.3974C63.1287 48.4564 63.2664 48.5154 63.4696 48.5974C63.7515 48.2236 63.9777 47.804 64.3121 47.509C64.6563 47.2041 65.0924 46.9943 65.5153 46.791C66.3381 46.3911 66.938 45.7944 67.4822 45.0535C68.3149 43.9192 69.4361 43.1783 70.9507 43.2931C71.367 43.3259 71.7899 43.2767 72.2095 43.3029C73.1865 43.3619 74.0716 43.2603 74.7437 42.4014C74.9863 42.0932 75.4255 41.9293 75.7894 41.726C76.6057 41.2704 77.4286 40.8212 78.2613 40.3918C78.6252 40.2049 79.0186 40.0771 79.3923 39.9066C79.6677 39.7787 80.025 39.6935 80.1824 39.4706C80.5692 38.9297 81.0642 38.8215 81.6773 38.8084C82.6411 38.7887 83.5 38.9133 84.3327 39.5132C85.3522 40.2475 86.5127 40.7688 87.8863 40.3197C87.9781 40.1525 88.106 39.9787 88.1716 39.7886C88.5191 38.733 89.4435 38.356 90.3516 38.2838C91.5744 38.1855 92.5481 37.7626 93.4037 36.9266C94.0168 36.3267 94.7216 35.9169 95.6362 35.9825C96.7148 36.0612 97.6491 35.4875 98.649 35.2317C99.839 34.9269 100.947 34.3138 102.117 33.9073C102.993 33.6024 103.934 33.4844 104.802 33.1599C105.96 32.7271 107.238 32.5862 108.356 31.7305C108.533 31.1863 108.782 30.5569 108.94 29.9012C109.261 28.567 110.113 27.7835 111.52 27.5671C112.549 27.4097 113.5 27.0098 114.45 26.6C115.067 26.3345 115.473 25.8919 115.772 25.3182C115.893 25.0854 115.978 24.8297 116.135 24.6265C116.598 24.0298 117.135 23.6135 117.981 23.643C119.499 23.6987 121.023 23.6594 122.541 23.6758C122.853 23.679 123.217 23.6626 123.459 23.8134C124.23 24.2921 125.062 24.2396 125.901 24.2429C127.475 24.2429 129.049 24.2298 130.622 24.2495C131.409 24.2593 132.052 24.1413 132.396 23.2856C132.599 22.7742 133.084 22.5284 133.671 22.5349C134.455 22.5415 135.241 22.4759 136.025 22.5152C137.412 22.5841 138.713 22.4005 139.959 21.7153C140.723 21.2957 141.516 20.9482 142.27 20.4893C143.07 20.0041 144.034 19.5877 145.089 19.7189C145.548 19.7746 146.007 19.7287 146.45 19.4697C147.273 18.9878 148.155 19.0861 149.023 19.3877C149.22 19.4566 149.394 19.5943 149.59 19.65C150.318 19.8598 150.794 19.6795 151.187 19.0271C151.511 18.4895 151.862 17.9584 152.085 17.3782C152.311 16.7946 152.698 16.4176 153.206 16.1226C153.928 15.7029 154.649 15.2735 155.39 14.8932C155.655 14.7555 155.983 14.6932 156.285 14.6801C156.963 14.6473 157.648 14.667 158.33 14.667C158.96 14.667 159.563 14.6604 160.156 14.3326C160.497 14.1458 160.966 14.1392 161.376 14.1326C163.002 14.1097 164.625 14.113 166.251 14.1195C167.762 14.1228 167.89 14.0474 168.477 12.6804C168.745 12.0575 169.034 11.4444 169.296 10.8216C169.821 9.56926 170.217 8.25466 171.165 7.222C171.201 7.18266 171.244 7.14004 171.25 7.09087C171.522 5.55662 172.614 5.59924 173.774 5.76643C173.879 5.78283 173.981 5.80905 174.302 5.87462L174.289 5.832Z" fill="#53B95F"/>
</svg>
