<svg width="111" height="24" viewBox="0 0 111 24" fill="none" xmlns="http://www.w3.org/2000/svg">
<g clip-path="url(#clip0_15526_1304)">
<path d="M17.1318 20.7647C15.3082 21.7459 13.3294 22.5012 11.1976 23.0353C9.06352 23.5694 6.90588 23.8353 4.71999 23.8353C3.49882 23.8353 2.65176 23.5977 2.17882 23.1247C1.70588 22.6518 1.46823 21.8729 1.46823 20.7906V16.3788C1.46823 15.8635 1.57176 15.4941 1.77882 15.2682C1.98588 15.0447 2.36235 14.9318 2.91529 14.9318H9.28941V12.8424H0.644699C0.404699 12.8424 0.244699 12.8 0.167052 12.7129C0.0894048 12.6282 0.0517578 12.4894 0.0517578 12.3012V11.5788C0.0517578 11.3906 0.0894048 11.2518 0.167052 11.1671C0.244699 11.08 0.402346 11.0377 0.644699 11.0377H23.2235C23.4635 11.0377 23.6235 11.08 23.7012 11.1671C23.7788 11.2541 23.8165 11.3906 23.8165 11.5788V12.3012C23.8165 12.4894 23.7788 12.6282 23.7012 12.7129C23.6235 12.8 23.4635 12.8424 23.2235 12.8424H14.5529V14.9318H20.9529C21.5035 14.9318 21.8823 15.0447 22.0894 15.2682C22.2965 15.4918 22.4 15.8612 22.4 16.3788V22.3906C22.4 22.9059 22.2965 23.2753 22.0894 23.5012C21.8823 23.7247 21.5035 23.8377 20.9529 23.8377H18.5788C18.0282 23.8377 17.6494 23.7247 17.4423 23.5012C17.2353 23.2777 17.1318 22.9082 17.1318 22.3906V20.7647ZM22.5247 9.48942C21.9223 9.47295 21.1529 9.40471 20.2165 9.28236C19.2776 9.16236 18.3059 8.96471 17.3012 8.68942C16.2941 8.41412 15.3153 8.04001 14.36 7.56707C13.4047 7.09413 12.6 6.48001 11.9482 5.72236C11.2776 6.48001 10.4635 7.09413 9.51058 7.56707C8.55529 8.04001 7.57646 8.41412 6.5694 8.68942C5.56235 8.96471 4.59999 9.16236 3.67999 9.28236C2.75999 9.40236 1.99764 9.47295 1.39529 9.48942C1.32705 9.48942 1.24941 9.47295 1.16235 9.43765C1.07529 9.40236 1.03293 9.29177 1.03293 9.10118V8.04236C1.03293 7.90589 1.05882 7.81883 1.11058 7.78354C1.16235 7.74824 1.25646 7.72236 1.39529 7.70589C2.8047 7.56942 3.98352 7.26824 4.92941 6.80236C5.87529 6.33883 6.63293 5.81883 7.19999 5.24236C7.76705 4.66589 8.17176 4.08942 8.41176 3.51295C8.65176 2.93648 8.77411 2.46824 8.77411 2.10589V1.12471C8.77411 0.781183 8.83764 0.552949 8.96705 0.440008C9.09646 0.32942 9.34117 0.272949 9.70352 0.272949H14.1153C14.4776 0.272949 14.7223 0.32942 14.8518 0.440008C14.9812 0.552949 15.0447 0.77883 15.0447 1.12471V2.10589C15.0447 2.46824 15.1694 2.93648 15.4188 3.51295C15.6682 4.08942 16.0847 4.66589 16.6706 5.24236C17.2541 5.81883 18.0259 6.33883 18.9788 6.80236C19.9341 7.26589 21.1153 7.56707 22.5271 7.70589C22.6635 7.72236 22.76 7.74824 22.8118 7.78354C22.8635 7.81883 22.8894 7.90353 22.8894 8.04236V9.10118C22.8894 9.29177 22.8471 9.40236 22.76 9.43765C22.6729 9.47295 22.5953 9.48942 22.5271 9.48942H22.5247ZM7.45646 20.8165C8.07529 20.8165 8.77646 20.7906 9.55999 20.7388C10.3435 20.6871 11.16 20.6047 12.0118 20.4941C12.8635 20.3812 13.7271 20.2306 14.6047 20.0424C15.4823 19.8518 16.3247 19.6212 17.1341 19.3459V17.5388C17.1341 17.2118 17.0823 16.9977 16.9788 16.8941C16.8753 16.7906 16.6518 16.7388 16.3082 16.7388H7.53411C7.22352 16.7388 7.01411 16.7906 6.90117 16.8941C6.78823 16.9977 6.73411 17.2118 6.73411 17.5388V20.1459C6.73411 20.4212 6.78117 20.6024 6.87529 20.6871C6.96941 20.7741 7.16235 20.8165 7.45646 20.8165Z" fill="#2B2D36"/>
<path d="M40.4848 21.3836C40.4848 21.8989 40.3812 22.2683 40.1742 22.4942C39.9671 22.7177 39.5883 22.8306 39.0377 22.8306H36.6636C36.113 22.8306 35.7342 22.7177 35.5271 22.4942C35.3201 22.2706 35.2165 21.9012 35.2165 21.3836V19.32C34.3907 20.4565 33.4142 21.3247 32.2871 21.9271C31.1601 22.5294 30.0283 22.8306 28.8942 22.8306C27.913 22.8306 27.1742 22.5977 26.6754 22.1342C26.1765 21.6706 25.9271 20.9224 25.9271 19.8894V1.72474C25.9271 1.20945 26.0307 0.840036 26.2377 0.614154C26.4448 0.390624 26.8212 0.277683 27.3742 0.277683H29.7483C30.2989 0.277683 30.6777 0.390624 30.8848 0.614154C31.0918 0.837683 31.1954 1.2071 31.1954 1.72474V8.97651H35.2212V1.72474C35.2212 1.20945 35.3248 0.840036 35.5318 0.614154C35.7389 0.390624 36.1154 0.277683 36.6683 0.277683H39.0424C39.593 0.277683 39.9718 0.390624 40.1789 0.614154C40.3859 0.837683 40.4895 1.2071 40.4895 1.72474V21.3859L40.4848 21.3836ZM32.2024 18.7012C32.7859 18.7012 33.3248 18.5859 33.8142 18.353C34.3036 18.12 34.7718 17.8071 35.2212 17.4118V10.7812H31.1954V17.6447C31.1954 18.04 31.2824 18.3153 31.4542 18.4706C31.6259 18.6259 31.8754 18.7036 32.2024 18.7036V18.7012ZM48.4848 21.3836C48.4848 21.8989 48.3812 22.2683 48.1742 22.4942C47.9671 22.7177 47.5883 22.8306 47.0377 22.8306H44.6636C44.113 22.8306 43.7342 22.7177 43.5271 22.4942C43.3201 22.2706 43.2165 21.9012 43.2165 21.3836V1.72239C43.2165 1.20709 43.3201 0.837683 43.5271 0.6118C43.7342 0.388271 44.1107 0.27533 44.6636 0.27533H47.0377C47.5883 0.27533 47.9671 0.388271 48.1742 0.6118C48.3812 0.83533 48.4848 1.20474 48.4848 1.72239V21.3836Z" fill="#2B2D36"/>
<path d="M74.8282 21.0236C75.0682 21.0236 75.2282 21.0659 75.3058 21.153C75.3835 21.2377 75.4211 21.3765 75.4211 21.5647V22.2871C75.4211 22.4753 75.3811 22.6142 75.3058 22.6989C75.2282 22.7836 75.0682 22.8283 74.8282 22.8283H52.2494C52.0094 22.8283 51.8494 22.7859 51.7717 22.6989C51.6941 22.6118 51.6564 22.4753 51.6564 22.2871V21.5647C51.6564 21.3765 51.6941 21.2377 51.7717 21.153C51.8494 21.0659 52.007 21.0236 52.2494 21.0236H60.8941V16.1977C60.8941 15.6824 60.9976 15.313 61.2047 15.0871C61.4117 14.8636 61.7882 14.7506 62.3411 14.7506H64.7153C65.2659 14.7506 65.6447 14.8636 65.8517 15.0871C66.0588 15.3106 66.1623 15.68 66.1623 16.1977V21.0236H74.8329H74.8282ZM66.6753 3.16709C66.6753 4.52709 66.4588 5.76945 66.0306 6.89651C65.6 8.02356 65.0211 9.03062 64.2894 9.91533C63.5576 10.8024 62.7153 11.5836 61.76 12.2636C60.8047 12.9436 59.807 13.5271 58.767 14.0189C57.727 14.5083 56.68 14.913 55.6329 15.2306C54.5835 15.5483 53.5953 15.7859 52.6658 15.9412C52.4753 15.9765 52.3811 15.8989 52.3811 15.7083V14.7271C52.3811 14.6071 52.4188 14.5247 52.4964 14.4824C52.5741 14.44 52.6376 14.4094 52.6894 14.393C53.8753 14.0142 54.9482 13.5036 55.9011 12.8565C56.8564 12.2118 57.6635 11.4542 58.327 10.5859C58.9882 9.71768 59.5011 8.74121 59.8611 7.6565C60.2235 6.5718 60.4023 5.40239 60.4023 4.14827V1.72239C60.4023 1.20709 60.5058 0.837683 60.7129 0.6118C60.92 0.388271 61.2964 0.27533 61.8494 0.27533H65.2306C65.7811 0.27533 66.16 0.388271 66.367 0.6118C66.5741 0.83533 66.6776 1.20474 66.6776 1.72239V3.16709H66.6753ZM66.1341 11.6565C66.1341 11.0894 66.2423 10.56 66.4564 10.0706C66.6706 9.58121 66.96 9.15063 67.32 8.78121C67.6823 8.4118 68.1035 8.12004 68.5835 7.90356C69.0659 7.68945 69.5717 7.58121 70.1059 7.58121C70.6729 7.58121 71.2023 7.68945 71.6941 7.90356C72.1835 8.12004 72.6141 8.4118 72.9835 8.78121C73.3529 9.15063 73.6447 9.58121 73.8611 10.0706C74.0753 10.56 74.1835 11.0894 74.1835 11.6565C74.1835 12.1906 74.0753 12.6965 73.8611 13.1789C73.6447 13.6612 73.3529 14.0824 72.9835 14.4424C72.6141 14.8047 72.1835 15.0918 71.6941 15.3059C71.2047 15.5224 70.6753 15.6283 70.1059 15.6283C69.5717 15.6283 69.0659 15.52 68.5835 15.3059C68.1011 15.0918 67.68 14.8024 67.32 14.4424C66.9576 14.08 66.6706 13.6589 66.4564 13.1789C66.24 12.6965 66.1341 12.1906 66.1341 11.6565Z" fill="#2B2D36"/>
<path d="M76.8165 2.93415C76.8165 2.5718 76.8847 2.23298 77.0235 1.91533C77.16 1.59768 77.3506 1.31298 77.5906 1.06356C77.8306 0.814153 78.1106 0.621213 78.4282 0.48239C78.7459 0.345919 79.0871 0.27533 79.4471 0.27533H90.1294C90.68 0.27533 91.0588 0.388271 91.2659 0.6118C91.4729 0.83533 91.5765 1.20474 91.5765 1.72239V10.2636C91.5765 10.6942 91.4894 11.0212 91.3176 11.2447C91.1459 11.4683 90.7835 11.5812 90.2329 11.5812H83.8329C83.4894 11.5812 83.2306 11.6377 83.0588 11.7483C82.8871 11.8612 82.8 12.113 82.8 12.5106V17.6447C82.8 18.04 82.8871 18.3153 83.0588 18.4706C83.2306 18.6259 83.48 18.7036 83.8071 18.7036C84.72 18.7036 85.6823 18.5224 86.6965 18.1624C87.7106 17.8 88.7129 17.3318 89.7035 16.7553C90.6918 16.1789 91.6306 15.5247 92.5153 14.7953C93.4 14.0636 94.1718 13.32 94.8235 12.5624V1.72474C94.8235 1.20945 94.9271 0.840036 95.1341 0.614154C95.3412 0.390624 95.7176 0.277683 96.2706 0.277683H98.6447C99.1953 0.277683 99.5741 0.390624 99.7812 0.614154C99.9882 0.837683 100.092 1.2071 100.092 1.72474V21.3859C100.092 21.9012 99.9882 22.2706 99.7812 22.4965C99.5741 22.72 99.1953 22.833 98.6447 22.833H96.2706C95.72 22.833 95.3412 22.72 95.1341 22.4965C94.9271 22.273 94.8235 21.9036 94.8235 21.3859V14.1106C94.1012 15.1953 93.2024 16.2612 92.1271 17.3106C91.0518 18.36 89.8824 19.2942 88.6188 20.1106C87.3553 20.9271 86.0259 21.5859 84.6329 22.0847C83.24 22.5836 81.8635 22.833 80.5035 22.833C79.5224 22.833 78.7835 22.6 78.2847 22.1365C77.7859 21.673 77.5365 20.9247 77.5365 19.8918V11.0918C77.5365 10.6612 77.6235 10.3342 77.7953 10.1106C77.9671 9.8871 78.3294 9.77415 78.88 9.77415H85.28C85.6235 9.77415 85.8824 9.71768 86.0541 9.6071C86.2259 9.49651 86.3129 9.24239 86.3129 8.84474V3.01415C86.3129 2.61886 86.2259 2.36474 86.0541 2.2518C85.8824 2.14121 85.6235 2.08474 85.28 2.08474H81.9506C82.0541 2.37651 82.1059 2.66121 82.1059 2.93651C82.1059 3.29886 82.0376 3.63768 81.8988 3.95533C81.76 4.27298 81.5671 4.55298 81.3176 4.79298C81.0682 5.03298 80.7835 5.22357 80.4659 5.36004C80.1482 5.49886 79.8071 5.5671 79.4471 5.5671C79.0871 5.5671 78.7459 5.49886 78.4282 5.36004C78.1106 5.22357 77.8306 5.03298 77.5906 4.79298C77.3506 4.55298 77.16 4.27298 77.0235 3.95533C76.8847 3.63768 76.8165 3.29651 76.8165 2.93651V2.93415Z" fill="#2B2D36"/>
<path d="M106.172 22.913C108.397 22.913 110.2 21.1095 110.2 18.8847C110.2 16.66 108.397 14.8565 106.172 14.8565C103.947 14.8565 102.144 16.66 102.144 18.8847C102.144 21.1095 103.947 22.913 106.172 22.913Z" fill="#2B2D36"/>
</g>
<defs>
<clipPath id="clip0_15526_1304">
<rect width="110.588" height="24" fill="white"/>
</clipPath>
</defs>
</svg>
