<svg width="36" height="36" viewBox="0 0 36 36" fill="none" xmlns="http://www.w3.org/2000/svg">
<g id="add_photo_alternate">
<mask id="mask0_18639_5253" style="mask-type:alpha" maskUnits="userSpaceOnUse" x="0" y="0" width="36" height="36">
<rect id="Bounding box" width="36" height="36" fill="#D9D9D9"/>
</mask>
<g mask="url(#mask0_18639_5253)">
<path id="add_photo_alternate_2" d="M7.00012 31.5C6.32512 31.5 5.73962 31.2521 5.24363 30.7564C4.74788 30.2604 4.5 29.6749 4.5 28.9999V7.00012C4.5 6.32512 4.74788 5.73963 5.24363 5.24363C5.73962 4.74788 6.32512 4.5 7.00012 4.5H20.1251V7.00012H7.00012V28.9999H28.9999V15.8749H31.5V28.9999C31.5 29.6749 31.2521 30.2604 30.7564 30.7564C30.2604 31.2521 29.6749 31.5 28.9999 31.5H7.00012ZM9 25.4501H27L21.525 18.15L16.8499 24.3251L13.3751 19.725L9 25.4501ZM25.8251 13.3751V10.2H22.6249V7.69988H25.8251V4.5H28.3249V7.69988H31.5V10.2H28.3249V13.3751H25.8251Z" fill="#A9ABB8"/>
</g>
</g>
</svg>
