<svg width="36" height="36" viewBox="0 0 36 36" fill="none" xmlns="http://www.w3.org/2000/svg">
<g id="add_a_photo">
<mask id="mask0_18634_6514" style="mask-type:alpha" maskUnits="userSpaceOnUse" x="0" y="0" width="36" height="36">
<rect id="Bounding box" width="36" height="36" fill="#D9D9D9"/>
</mask>
<g mask="url(#mask0_18634_6514)">
<path id="add_a_photo_2" d="M4.00012 31.4993C3.32512 31.4993 2.73962 31.2515 2.24363 30.7557C1.74788 30.2597 1.5 29.6742 1.5 28.9992V10.1742C1.5 9.51597 1.74788 8.93472 2.24363 8.43047C2.73962 7.92647 3.32512 7.67447 4.00012 7.67447H9.25012L12 4.49934H21.8501V6.99947H13.1374L10.3999 10.1742H4.00012V28.9992H28.9999V14.1492H31.5V28.9992C31.5 29.6742 31.2479 30.2597 30.7436 30.7557C30.2396 31.2515 29.6584 31.4993 28.9999 31.4993H4.00012ZM28.9999 10.1495V6.99947H25.8499V4.49934H28.9999V1.32422H31.5V4.49934H34.6751V6.99947H31.5V10.1495H28.9999ZM16.4876 26.0742C18.3209 26.0742 19.8646 25.4472 21.1189 24.1932C22.3729 22.939 22.9999 21.3952 22.9999 19.562C22.9999 17.7285 22.3729 16.1888 21.1189 14.9431C19.8646 13.6973 18.3209 13.0745 16.4876 13.0745C14.6541 13.0745 13.1145 13.6973 11.8688 14.9431C10.623 16.1888 10.0001 17.7285 10.0001 19.562C10.0001 21.3952 10.623 22.939 11.8688 24.1932C13.1145 25.4472 14.6541 26.0742 16.4876 26.0742ZM16.4876 23.5745C15.3459 23.5745 14.3959 23.1911 13.6376 22.4243C12.8791 21.6576 12.4999 20.7035 12.4999 19.562C12.4999 18.4202 12.8791 17.4702 13.6376 16.712C14.3959 15.9535 15.3459 15.5742 16.4876 15.5742C17.6291 15.5742 18.5833 15.9535 19.35 16.712C20.1168 17.4702 20.5001 18.4202 20.5001 19.562C20.5001 20.7035 20.1168 21.6576 19.35 22.4243C18.5833 23.1911 17.6291 23.5745 16.4876 23.5745Z" fill="#A9ABB8"/>
</g>
</g>
</svg>
