<svg width="24" height="25" viewBox="0 0 24 25" fill="none" xmlns="http://www.w3.org/2000/svg">
<g id="icon/spark">
<mask id="mask0_18964_2808" style="mask-type:alpha" maskUnits="userSpaceOnUse" x="-1" y="0" width="26" height="25">
<rect id="Bounding box" x="0.00585938" y="0.479492" width="24" height="24" transform="rotate(0.0260027 0.00585938 0.479492)" fill="#D9D9D9"/>
</mask>
<g mask="url(#mask0_18964_2808)">
<path id="spark" d="M11.9959 23.4845C11.9973 20.4178 13.0651 17.8183 15.1994 15.6859C17.3337 13.5536 19.9342 12.4881 23.0009 12.4895C19.9342 12.4881 17.3347 11.4202 15.2023 9.28594C13.07 7.15163 12.0045 4.55115 12.0059 1.48448C12.0045 4.55115 10.9366 7.15067 8.80232 9.28303C6.66802 11.4154 4.06753 12.4809 1.00087 12.4795C4.06753 12.4809 6.66705 13.5487 8.79942 15.683C10.9318 17.8173 11.9973 20.4178 11.9959 23.4845Z" fill="#1D6CE0"/>
</g>
</g>
</svg>
