<svg width="36" height="36" viewBox="0 0 36 36" fill="currentColor" xmlns="http://www.w3.org/2000/svg">
<g id="Icon/star/false">
<path id="Icon" d="M16.924 5.17985C17.2697 4.47944 17.4426 4.12924 17.6772 4.01735C17.8814 3.92 18.1186 3.92 18.3228 4.01735C18.5575 4.12924 18.7303 4.47944 19.0761 5.17985L22.3561 11.8248C22.4582 12.0316 22.5092 12.135 22.5838 12.2152C22.6498 12.2863 22.729 12.3439 22.817 12.3848C22.9163 12.431 23.0304 12.4477 23.2586 12.481L30.5955 13.5534C31.3681 13.6664 31.7544 13.7228 31.9332 13.9115C32.0887 14.0757 32.1619 14.3013 32.1323 14.5255C32.0982 14.7832 31.8186 15.0556 31.2592 15.6004L25.9522 20.7695C25.7867 20.9306 25.704 21.0112 25.6506 21.1071C25.6034 21.1919 25.5731 21.2852 25.5614 21.3816C25.5482 21.4906 25.5677 21.6044 25.6067 21.832L26.8589 29.1331C26.991 29.9031 27.0571 30.2881 26.9329 30.5166C26.825 30.7154 26.633 30.8549 26.4106 30.8961C26.1549 30.9435 25.8092 30.7617 25.1177 30.398L18.5586 26.9486C18.3542 26.8412 18.252 26.7874 18.1444 26.7663C18.049 26.7476 17.951 26.7476 17.8557 26.7663C17.748 26.7874 17.6459 26.8412 17.4415 26.9486L10.8824 30.398C10.1909 30.7617 9.84512 30.9435 9.58946 30.8961C9.36702 30.8549 9.17508 30.7154 9.06711 30.5166C8.943 30.2881 9.00904 29.9031 9.14111 29.1331L10.3933 21.832C10.4324 21.6044 10.4519 21.4906 10.4387 21.3816C10.427 21.2852 10.3967 21.1919 10.3494 21.1071C10.296 21.0112 10.2133 20.9306 10.0479 20.7695L4.74084 15.6004C4.18149 15.0556 3.90182 14.7832 3.86779 14.5255C3.83818 14.3013 3.91133 14.0757 4.06688 13.9115C4.24565 13.7228 4.63196 13.6664 5.40457 13.5534L12.7415 12.481C12.9696 12.4477 13.0837 12.431 13.1831 12.3848C13.271 12.3439 13.3502 12.2863 13.4163 12.2152C13.4909 12.135 13.5419 12.0316 13.644 11.8248L16.924 5.17985Z" stroke="currentStroke" stroke-width="2" stroke-linecap="round" stroke-linejoin="round"/>
</g>
</svg>
