<svg width="36" height="36" viewBox="0 0 36 36" fill="none" xmlns="http://www.w3.org/2000/svg">
<g opacity="0.12">
<path d="M28.0257 29.1576C25.3689 31.5464 21.8543 33 18.0002 33C14.146 33 10.6314 31.5464 7.97461 29.1576C8.8871 27.0078 11.0175 25.5 13.5002 25.5H22.5002C24.9828 25.5 27.1132 27.0078 28.0257 29.1576Z" fill="currentColor"/>
<path d="M18 20.25C21.3137 20.25 24 17.5637 24 14.25C24 10.9363 21.3137 8.25 18 8.25C14.6863 8.25 12 10.9363 12 14.25C12 17.5637 14.6863 20.25 18 20.25Z" fill="currentColor"/>
</g>
<path d="M7.97444 29.1576C8.88693 27.0078 11.0174 25.5 13.5 25.5H22.5C24.9826 25.5 27.1131 27.0078 28.0256 29.1576M24 14.25C24 17.5637 21.3137 20.25 18 20.25C14.6863 20.25 12 17.5637 12 14.25C12 10.9363 14.6863 8.25 18 8.25C21.3137 8.25 24 10.9363 24 14.25ZM33 18C33 26.2843 26.2843 33 18 33C9.71573 33 3 26.2843 3 18C3 9.71573 9.71573 3 18 3C26.2843 3 33 9.71573 33 18Z" stroke="currentColor" stroke-linecap="round" stroke-linejoin="round"/>
</svg>
