<svg width="37" height="36" viewBox="0 0 37 36" fill="none" xmlns="http://www.w3.org/2000/svg">
<g opacity="0.12">
<path d="M13.2667 4.5H7.56675C6.72667 4.5 6.30663 4.5 5.98576 4.66349C5.70352 4.8073 5.47405 5.03677 5.33024 5.31901C5.16675 5.63988 5.16675 6.05992 5.16675 6.9V12.6C5.16675 13.4401 5.16675 13.8601 5.33024 14.181C5.47405 14.4632 5.70352 14.6927 5.98576 14.8365C6.30663 15 6.72667 15 7.56675 15H13.2667C14.1068 15 14.5269 15 14.8477 14.8365C15.13 14.6927 15.3594 14.4632 15.5033 14.181C15.6667 13.8601 15.6667 13.4401 15.6667 12.6V6.9C15.6667 6.05992 15.6667 5.63988 15.5033 5.31901C15.3594 5.03677 15.13 4.8073 14.8477 4.66349C14.5269 4.5 14.1068 4.5 13.2667 4.5Z" fill="white"/>
<path d="M29.7668 4.5H24.0667C23.2267 4.5 22.8066 4.5 22.4858 4.66349C22.2035 4.8073 21.9741 5.03677 21.8302 5.31901C21.6667 5.63988 21.6667 6.05992 21.6667 6.9V12.6C21.6667 13.4401 21.6667 13.8601 21.8302 14.181C21.9741 14.4632 22.2035 14.6927 22.4858 14.8365C22.8066 15 23.2267 15 24.0667 15H29.7668C30.6068 15 31.0269 15 31.3477 14.8365C31.63 14.6927 31.8594 14.4632 32.0033 14.181C32.1667 13.8601 32.1667 13.4401 32.1667 12.6V6.9C32.1667 6.05992 32.1667 5.63988 32.0033 5.31901C31.8594 5.03677 31.63 4.8073 31.3477 4.66349C31.0269 4.5 30.6068 4.5 29.7668 4.5Z" fill="white"/>
<path d="M29.7668 21H24.0667C23.2267 21 22.8066 21 22.4858 21.1635C22.2035 21.3073 21.9741 21.5368 21.8302 21.819C21.6667 22.1399 21.6667 22.5599 21.6667 23.4V29.1C21.6667 29.9401 21.6667 30.3601 21.8302 30.681C21.9741 30.9632 22.2035 31.1927 22.4858 31.3365C22.8066 31.5 23.2267 31.5 24.0667 31.5H29.7668C30.6068 31.5 31.0269 31.5 31.3477 31.3365C31.63 31.1927 31.8594 30.9632 32.0033 30.681C32.1667 30.3601 32.1667 29.9401 32.1667 29.1V23.4C32.1667 22.5599 32.1667 22.1399 32.0033 21.819C31.8594 21.5368 31.63 21.3073 31.3477 21.1635C31.0269 21 30.6068 21 29.7668 21Z" fill="white"/>
<path d="M13.2667 21H7.56675C6.72667 21 6.30663 21 5.98576 21.1635C5.70352 21.3073 5.47405 21.5368 5.33024 21.819C5.16675 22.1399 5.16675 22.5599 5.16675 23.4V29.1C5.16675 29.9401 5.16675 30.3601 5.33024 30.681C5.47405 30.9632 5.70352 31.1927 5.98576 31.3365C6.30663 31.5 6.72667 31.5 7.56675 31.5H13.2667C14.1068 31.5 14.5269 31.5 14.8477 31.3365C15.13 31.1927 15.3594 30.9632 15.5033 30.681C15.6667 30.3601 15.6667 29.9401 15.6667 29.1V23.4C15.6667 22.5599 15.6667 22.1399 15.5033 21.819C15.3594 21.5368 15.13 21.3073 14.8477 21.1635C14.5269 21 14.1068 21 13.2667 21Z" fill="white"/>
</g>
<path d="M13.2667 4.5H7.56675C6.72667 4.5 6.30663 4.5 5.98576 4.66349C5.70352 4.8073 5.47405 5.03677 5.33024 5.31901C5.16675 5.63988 5.16675 6.05992 5.16675 6.9V12.6C5.16675 13.4401 5.16675 13.8601 5.33024 14.181C5.47405 14.4632 5.70352 14.6927 5.98576 14.8365C6.30663 15 6.72667 15 7.56675 15H13.2667C14.1068 15 14.5269 15 14.8477 14.8365C15.13 14.6927 15.3594 14.4632 15.5033 14.181C15.6667 13.8601 15.6667 13.4401 15.6667 12.6V6.9C15.6667 6.05992 15.6667 5.63988 15.5033 5.31901C15.3594 5.03677 15.13 4.8073 14.8477 4.66349C14.5269 4.5 14.1068 4.5 13.2667 4.5Z" stroke="white" stroke-linecap="round" stroke-linejoin="round"/>
<path d="M29.7667 4.5H24.0668C23.2267 4.5 22.8066 4.5 22.4858 4.66349C22.2035 4.8073 21.974 5.03677 21.8302 5.31901C21.6667 5.63988 21.6667 6.05992 21.6667 6.9V12.6C21.6667 13.4401 21.6667 13.8601 21.8302 14.181C21.974 14.4632 22.2035 14.6927 22.4858 14.8365C22.8066 15 23.2267 15 24.0668 15H29.7667C30.6068 15 31.0269 15 31.3477 14.8365C31.63 14.6927 31.8594 14.4632 32.0033 14.181C32.1668 13.8601 32.1668 13.4401 32.1668 12.6V6.9C32.1668 6.05992 32.1668 5.63988 32.0033 5.31901C31.8594 5.03677 31.63 4.8073 31.3477 4.66349C31.0269 4.5 30.6068 4.5 29.7667 4.5Z" stroke="white" stroke-linecap="round" stroke-linejoin="round"/>
<path d="M29.7667 21H24.0668C23.2267 21 22.8066 21 22.4858 21.1635C22.2035 21.3073 21.974 21.5368 21.8302 21.819C21.6667 22.1399 21.6667 22.5599 21.6667 23.4V29.1C21.6667 29.9401 21.6667 30.3601 21.8302 30.681C21.974 30.9632 22.2035 31.1927 22.4858 31.3365C22.8066 31.5 23.2267 31.5 24.0668 31.5H29.7667C30.6068 31.5 31.0269 31.5 31.3477 31.3365C31.63 31.1927 31.8594 30.9632 32.0033 30.681C32.1668 30.3601 32.1668 29.9401 32.1668 29.1V23.4C32.1668 22.5599 32.1668 22.1399 32.0033 21.819C31.8594 21.5368 31.63 21.3073 31.3477 21.1635C31.0269 21 30.6068 21 29.7667 21Z" stroke="white" stroke-linecap="round" stroke-linejoin="round"/>
<path d="M13.2667 21H7.56675C6.72667 21 6.30663 21 5.98576 21.1635C5.70352 21.3073 5.47405 21.5368 5.33024 21.819C5.16675 22.1399 5.16675 22.5599 5.16675 23.4V29.1C5.16675 29.9401 5.16675 30.3601 5.33024 30.681C5.47405 30.9632 5.70352 31.1927 5.98576 31.3365C6.30663 31.5 6.72667 31.5 7.56675 31.5H13.2667C14.1068 31.5 14.5269 31.5 14.8477 31.3365C15.13 31.1927 15.3594 30.9632 15.5033 30.681C15.6667 30.3601 15.6667 29.9401 15.6667 29.1V23.4C15.6667 22.5599 15.6667 22.1399 15.5033 21.819C15.3594 21.5368 15.13 21.3073 14.8477 21.1635C14.5269 21 14.1068 21 13.2667 21Z" stroke="white" stroke-linecap="round" stroke-linejoin="round"/>
</svg>
