<svg width="37" height="36" viewBox="0 0 37 36" fill="none" xmlns="http://www.w3.org/2000/svg">
<g opacity="0.12">
<path d="M13.2667 4.5H7.56666C6.72658 4.5 6.30654 4.5 5.98567 4.66349C5.70343 4.8073 5.47396 5.03677 5.33015 5.31901C5.16666 5.63988 5.16666 6.05992 5.16666 6.9V12.6C5.16666 13.4401 5.16666 13.8601 5.33015 14.181C5.47396 14.4632 5.70343 14.6927 5.98567 14.8365C6.30654 15 6.72658 15 7.56666 15H13.2667C14.1067 15 14.5268 15 14.8476 14.8365C15.1299 14.6927 15.3594 14.4632 15.5032 14.181C15.6667 13.8601 15.6667 13.4401 15.6667 12.6V6.9C15.6667 6.05992 15.6667 5.63988 15.5032 5.31901C15.3594 5.03677 15.1299 4.8073 14.8476 4.66349C14.5268 4.5 14.1067 4.5 13.2667 4.5Z" fill="#858899"/>
<path d="M29.7667 4.5H24.0667C23.2266 4.5 22.8065 4.5 22.4857 4.66349C22.2034 4.8073 21.974 5.03677 21.8301 5.31901C21.6667 5.63988 21.6667 6.05992 21.6667 6.9V12.6C21.6667 13.4401 21.6667 13.8601 21.8301 14.181C21.974 14.4632 22.2034 14.6927 22.4857 14.8365C22.8065 15 23.2266 15 24.0667 15H29.7667C30.6067 15 31.0268 15 31.3476 14.8365C31.6299 14.6927 31.8594 14.4632 32.0032 14.181C32.1667 13.8601 32.1667 13.4401 32.1667 12.6V6.9C32.1667 6.05992 32.1667 5.63988 32.0032 5.31901C31.8594 5.03677 31.6299 4.8073 31.3476 4.66349C31.0268 4.5 30.6067 4.5 29.7667 4.5Z" fill="#858899"/>
<path d="M29.7667 21H24.0667C23.2266 21 22.8065 21 22.4857 21.1635C22.2034 21.3073 21.974 21.5368 21.8301 21.819C21.6667 22.1399 21.6667 22.5599 21.6667 23.4V29.1C21.6667 29.9401 21.6667 30.3601 21.8301 30.681C21.974 30.9632 22.2034 31.1927 22.4857 31.3365C22.8065 31.5 23.2266 31.5 24.0667 31.5H29.7667C30.6067 31.5 31.0268 31.5 31.3476 31.3365C31.6299 31.1927 31.8594 30.9632 32.0032 30.681C32.1667 30.3601 32.1667 29.9401 32.1667 29.1V23.4C32.1667 22.5599 32.1667 22.1399 32.0032 21.819C31.8594 21.5368 31.6299 21.3073 31.3476 21.1635C31.0268 21 30.6067 21 29.7667 21Z" fill="#858899"/>
<path d="M13.2667 21H7.56666C6.72658 21 6.30654 21 5.98567 21.1635C5.70343 21.3073 5.47396 21.5368 5.33015 21.819C5.16666 22.1399 5.16666 22.5599 5.16666 23.4V29.1C5.16666 29.9401 5.16666 30.3601 5.33015 30.681C5.47396 30.9632 5.70343 31.1927 5.98567 31.3365C6.30654 31.5 6.72658 31.5 7.56666 31.5H13.2667C14.1067 31.5 14.5268 31.5 14.8476 31.3365C15.1299 31.1927 15.3594 30.9632 15.5032 30.681C15.6667 30.3601 15.6667 29.9401 15.6667 29.1V23.4C15.6667 22.5599 15.6667 22.1399 15.5032 21.819C15.3594 21.5368 15.1299 21.3073 14.8476 21.1635C14.5268 21 14.1067 21 13.2667 21Z" fill="#858899"/>
</g>
<path d="M13.2667 4.5H7.56666C6.72658 4.5 6.30654 4.5 5.98567 4.66349C5.70343 4.8073 5.47396 5.03677 5.33015 5.31901C5.16666 5.63988 5.16666 6.05992 5.16666 6.9V12.6C5.16666 13.4401 5.16666 13.8601 5.33015 14.181C5.47396 14.4632 5.70343 14.6927 5.98567 14.8365C6.30654 15 6.72658 15 7.56666 15H13.2667C14.1067 15 14.5268 15 14.8476 14.8365C15.1299 14.6927 15.3594 14.4632 15.5032 14.181C15.6667 13.8601 15.6667 13.4401 15.6667 12.6V6.9C15.6667 6.05992 15.6667 5.63988 15.5032 5.31901C15.3594 5.03677 15.1299 4.8073 14.8476 4.66349C14.5268 4.5 14.1067 4.5 13.2667 4.5Z" stroke="#858899" stroke-linecap="round" stroke-linejoin="round"/>
<path d="M29.7667 4.5H24.0667C23.2266 4.5 22.8065 4.5 22.4857 4.66349C22.2034 4.8073 21.974 5.03677 21.8301 5.31901C21.6667 5.63988 21.6667 6.05992 21.6667 6.9V12.6C21.6667 13.4401 21.6667 13.8601 21.8301 14.181C21.974 14.4632 22.2034 14.6927 22.4857 14.8365C22.8065 15 23.2266 15 24.0667 15H29.7667C30.6067 15 31.0268 15 31.3476 14.8365C31.6299 14.6927 31.8594 14.4632 32.0032 14.181C32.1667 13.8601 32.1667 13.4401 32.1667 12.6V6.9C32.1667 6.05992 32.1667 5.63988 32.0032 5.31901C31.8594 5.03677 31.6299 4.8073 31.3476 4.66349C31.0268 4.5 30.6067 4.5 29.7667 4.5Z" stroke="#858899" stroke-linecap="round" stroke-linejoin="round"/>
<path d="M29.7667 21H24.0667C23.2266 21 22.8065 21 22.4857 21.1635C22.2034 21.3073 21.974 21.5368 21.8301 21.819C21.6667 22.1399 21.6667 22.5599 21.6667 23.4V29.1C21.6667 29.9401 21.6667 30.3601 21.8301 30.681C21.974 30.9632 22.2034 31.1927 22.4857 31.3365C22.8065 31.5 23.2266 31.5 24.0667 31.5H29.7667C30.6067 31.5 31.0268 31.5 31.3476 31.3365C31.6299 31.1927 31.8594 30.9632 32.0032 30.681C32.1667 30.3601 32.1667 29.9401 32.1667 29.1V23.4C32.1667 22.5599 32.1667 22.1399 32.0032 21.819C31.8594 21.5368 31.6299 21.3073 31.3476 21.1635C31.0268 21 30.6067 21 29.7667 21Z" stroke="#858899" stroke-linecap="round" stroke-linejoin="round"/>
<path d="M13.2667 21H7.56666C6.72658 21 6.30654 21 5.98567 21.1635C5.70343 21.3073 5.47396 21.5368 5.33015 21.819C5.16666 22.1399 5.16666 22.5599 5.16666 23.4V29.1C5.16666 29.9401 5.16666 30.3601 5.33015 30.681C5.47396 30.9632 5.70343 31.1927 5.98567 31.3365C6.30654 31.5 6.72658 31.5 7.56666 31.5H13.2667C14.1067 31.5 14.5268 31.5 14.8476 31.3365C15.1299 31.1927 15.3594 30.9632 15.5032 30.681C15.6667 30.3601 15.6667 29.9401 15.6667 29.1V23.4C15.6667 22.5599 15.6667 22.1399 15.5032 21.819C15.3594 21.5368 15.1299 21.3073 14.8476 21.1635C14.5268 21 14.1067 21 13.2667 21Z" stroke="#858899" stroke-linecap="round" stroke-linejoin="round"/>
</svg>
